<?xml version="1.0" standalone="no"?>
<!DOCTYPE svg PUBLIC "-//W3C//DTD SVG 20010904//EN"
 "http://www.w3.org/TR/2001/REC-SVG-20010904/DTD/svg10.dtd">
<svg version="1.0" xmlns="http://www.w3.org/2000/svg"
 width="250.000000pt" height="102.000000pt" viewBox="0 0 250.000000 102.000000"
 preserveAspectRatio="xMidYMid meet">

<g transform="translate(0.000000,102.000000) scale(0.100000,-0.100000)"
fill="#000000" stroke="none">
<path d="M261 887 c-13 -6 -33 -28 -45 -48 -11 -19 -31 -51 -44 -70 -35 -54
-64 -157 -68 -239 -1 -41 -9 -95 -18 -119 -12 -32 -13 -41 -3 -33 8 7 25 8 42
4 29 -8 29 -7 51 57 20 59 31 76 50 71 7 -2 75 69 91 95 11 19 12 19 12 -5 1
-34 33 -47 107 -43 59 3 134 25 134 41 0 4 12 8 26 9 15 0 29 5 33 11 3 5 16
14 29 21 12 7 20 16 17 22 -4 5 6 14 20 19 14 5 23 14 20 20 -3 6 4 10 17 11
23 0 23 0 -2 11 l-25 11 30 7 c17 3 40 12 50 18 16 10 10 11 -34 6 -40 -5 -52
-4 -47 5 4 6 3 11 -3 11 -5 0 -17 3 -26 6 -9 4 -15 3 -14 -2 4 -23 -3 -34 -33
-49 -58 -29 -203 -33 -158 -4 8 5 28 6 44 3 19 -4 26 -3 22 5 -4 7 1 11 13 11
35 0 33 19 -4 26 -35 6 -119 1 -182 -12 -28 -5 -34 -3 -44 19 -17 37 9 74 56
83 19 3 35 10 35 14 0 21 -112 27 -149 7z"/>
<path d="M210 491 c0 -3 -1 -79 -3 -169 l-2 -162 33 0 32 0 0 76 c0 56 3 75
13 72 11 -4 91 -114 99 -138 2 -7 19 -10 42 -8 l38 3 -49 75 c-27 41 -57 81
-66 89 -15 12 -13 18 31 70 68 79 69 81 30 81 -28 0 -37 -7 -60 -43 -15 -23
-39 -53 -53 -67 l-25 -23 0 71 c0 40 -3 72 -7 73 -5 0 -18 2 -30 3 -13 2 -23
0 -23 -3z"/>
<path d="M1941 343 c-30 -82 -56 -154 -59 -160 -3 -9 7 -13 30 -13 32 0 35 3
46 45 l12 46 63 -3 62 -3 9 -42 c9 -42 10 -43 48 -43 33 0 38 3 34 18 -3 9
-28 80 -55 157 l-49 140 -43 3 -44 2 -54 -147z m139 -40 c0 -2 -22 -3 -49 -3
l-49 0 19 63 c11 34 22 69 25 77 3 9 16 -17 30 -60 13 -41 24 -76 24 -77z"/>
<path d="M2240 330 l0 -160 30 0 30 0 0 160 0 160 -30 0 -30 0 0 -160z"/>
<path d="M1824 335 c-5 -11 -16 -13 -45 -9 -68 11 -119 -49 -74 -86 12 -10 13
-16 4 -26 -6 -8 -9 -23 -6 -34 3 -10 -1 -24 -9 -31 -21 -17 -17 -46 8 -63 48
-34 142 -9 154 40 9 36 -15 56 -75 62 -61 5 -73 32 -16 32 48 0 79 31 70 71
-5 22 -3 29 9 29 9 0 16 7 16 15 0 19 -29 20 -36 0z m-33 -41 c17 -21 0 -49
-32 -49 -27 0 -37 28 -19 50 16 19 34 19 51 -1z m10 -144 c26 -15 24 -38 -5
-51 -36 -17 -76 -4 -76 25 0 12 3 26 7 29 10 10 52 8 74 -3z"/>
<path d="M657 322 c-12 -2 -16 -9 -13 -19 3 -8 6 -44 6 -79 0 -57 2 -64 20
-64 16 0 19 8 22 63 3 59 4 62 31 65 19 2 27 9 27 23 0 22 -29 26 -48 7 -9 -9
-15 -9 -20 -2 -4 5 -15 8 -25 6z"/>
<path d="M790 323 c-13 -3 -16 -19 -15 -83 0 -69 2 -80 18 -80 14 0 17 9 17
53 0 58 12 77 47 77 16 0 23 6 23 20 0 23 -29 27 -48 8 -9 -9 -15 -9 -20 -2
-4 5 -14 8 -22 7z"/>
<path d="M913 323 c-26 -10 -12 -22 29 -25 55 -4 66 -32 17 -42 -58 -11 -88
-58 -56 -85 7 -6 39 -10 70 -9 l57 2 0 67 c0 80 -14 99 -68 98 -20 0 -43 -3
-49 -6z m77 -107 c0 -25 -30 -43 -50 -31 -24 15 -1 55 32 55 12 0 18 -8 18
-24z"/>
<path d="M1345 305 c-27 -26 -34 -80 -15 -115 16 -30 66 -42 106 -25 40 16 58
55 49 102 -12 63 -93 85 -140 38z m96 -36 c10 -27 10 -36 -2 -58 -28 -50 -79
-29 -79 33 0 62 58 80 81 25z"/>
<path d="M1520 323 c-12 -3 -14 -19 -12 -83 3 -71 6 -80 23 -80 17 0 19 8 19
64 0 54 3 66 19 71 40 12 51 -3 51 -71 0 -57 2 -64 20 -64 18 0 20 7 20 75 0
71 -1 76 -26 87 -19 9 -33 9 -57 0 -17 -6 -33 -8 -36 -4 -4 4 -13 6 -21 5z"/>
<path d="M467 253 c3 -38 10 -73 15 -80 6 -8 35 -12 75 -11 l65 1 -6 30 c-3
16 -6 51 -6 78 0 43 -3 49 -20 49 -19 0 -21 -5 -18 -62 3 -62 3 -63 -24 -66
-23 -3 -30 2 -39 25 -6 15 -9 45 -7 66 3 32 1 37 -18 37 -21 0 -21 -3 -17 -67z"/>
<path d="M1050 313 c0 -5 12 -41 26 -80 35 -95 54 -97 78 -12 9 34 19 59 21
57 3 -3 13 -29 24 -59 26 -79 46 -74 82 24 26 71 27 77 10 77 -13 0 -22 -13
-31 -47 -7 -27 -16 -51 -20 -56 -3 -4 -14 18 -24 48 -23 75 -46 75 -70 0 -9
-30 -19 -55 -21 -55 -2 0 -11 25 -20 55 -12 43 -20 55 -35 55 -11 0 -20 -3
-20 -7z"/>
</g>
</svg>
