<svg xmlns="http://www.w3.org/2000/svg" xmlns:xlink="http://www.w3.org/1999/xlink" xmlns:lucid="lucid" width="675.11" height="223.34"><g transform="translate(-43.77624999999995 -685.5874479166666)" lucid:page-tab-id="ZhO5Pp.buLdp"><path d="M0 500h1000v500H0z" fill="#fff"/><path d="M43.78 691.6a6 6 0 0 1 6-6h663.1a6 6 0 0 1 6 6v211.33a6 6 0 0 1-6 6H49.8a6 6 0 0 1-6-6z" fill="none"/><use xlink:href="#a" transform="matrix(1,0,0,1,48.77624999999995,690.5874479166666) translate(0.44791666666662877 154.91666666666669)"/><use xlink:href="#b" transform="matrix(1,0,0,1,48.77624999999995,690.5874479166666) translate(240.55208333333331 154.91666666666669)"/><defs><path fill="#1071e5" d="M1279 0H959c0-44-30-169-91-374H406C343-172 312-47 312 0H11c0-26 77-239 233-640s234-621 234-662h378c0 38 71 255 212 652S1279-36 1279 0zM817-565c-114-344-171-530-171-558h-16c0 26-59 212-177 558h364" id="c"/><path fill="#1071e5" d="M427 0H144c16-366 18-948 0-1302h283c-18 345-16 947 0 1302" id="d"/><g id="a"><use transform="matrix(0.10416666666666667,0,0,0.10416666666666667,0,0)" xlink:href="#c"/><use transform="matrix(0.10416666666666667,0,0,0.10416666666666667,134.375,0)" xlink:href="#d"/></g><path fill="#1071e5" d="M730-1332c353 0 620 294 620 657 0 385-280 711-653 711C345 36 77-259 77-621c0-385 280-711 653-711zm-6 1148c211 0 350-229 350-462 0-248-144-469-371-469-212 0-350 228-350 462 0 247 146 469 371 469" id="e"/><path fill="#1071e5" d="M1196 0H869c0-31-56-136-169-317-120-193-205-289-255-289h-30c0 152 4 354 11 606H144c16-357 18-952 0-1302h282c-7 185-11 358-11 520h22c29 0 103-82 222-246 115-159 173-251 173-274h298c0 22-61 105-183 249-126 149-218 243-276 284v15c68 35 175 167 321 395 136 212 204 332 204 359" id="f"/><path fill="#1071e5" d="M681-1033c0 144-93 259-279 345l-21 151H248l-38-213c143-42 215-111 215-208 0-118-124-181-371-188l23-189c207 0 359 21 457 65s147 123 147 237zM314-333c96 0 158 69 158 159 0 101-80 184-190 184-95 0-159-73-159-163 0-102 80-180 191-180" id="g"/><g id="b"><use transform="matrix(0.10416666666666667,0,0,0.10416666666666667,0,0)" xlink:href="#e"/><use transform="matrix(0.10416666666666667,0,0,0.10416666666666667,148.64583333333334,0)" xlink:href="#f"/><use transform="matrix(0.10416666666666667,0,0,0.10416666666666667,274.375,0)" xlink:href="#g"/><use transform="matrix(0.10416666666666667,0,0,0.10416666666666667,349.6875,0)" xlink:href="#g"/></g></defs></g></svg>