<svg xmlns="http://www.w3.org/2000/svg" xmlns:xlink="http://www.w3.org/1999/xlink" xmlns:lucid="lucid" width="454.24" height="267.82"><g transform="translate(-607.5453463231071 -295.84756642725904)" lucid:page-tab-id="~EP5el2H9AEX"><path d="M500 0h1000v1000H500z" fill="#fff"/><path d="M669.87 346.33a6 6 0 0 1 6-6h317.6a6 6 0 0 1 6 6v211.34a6 6 0 0 1-6 6h-317.6a6 6 0 0 1-6-6z" fill="none"/><use xlink:href="#a" transform="matrix(1,0,0,1,674.8699999999999,345.3283333333334) translate(0.20833333333331439 154.91666666666669)"/><path d="M616.5 370.84l65.67-65.68" stroke="#3a414a" stroke-width="8" fill="none"/><path d="M619.38 373.58l-5.02 5.02-.7-.7v-9.85l.1-.1zM689.93 303.02l-5.02 5.03-5.6-5.63.08-.1h9.86z" stroke="#3a414a" stroke-width=".05" fill="#3a414a"/><path d="M978.83 552.84l74-74" stroke="#3a414a" stroke-width="8" fill="none"/><path d="M981.7 555.58l-.08.1h-9.86l-.7-.7 5.03-5.02zM1055.67 471.76v9.86l-.1.1-5.62-5.63 5.03-5.03z" stroke="#3a414a" stroke-width=".05" fill="#3a414a"/><path d="M1031.43 360.7l-37.2-55.05" stroke="#3a414a" stroke-width="8" fill="none"/><path d="M1033.67 367.62l-1.62 1.1-3.97-5.9 5.6-3.77zM997.6 303.5l-6.6 4.46-3.8-5.63h9.6z" stroke="#3a414a" stroke-width=".05" fill="#3a414a"/><path d="M667.57 543.4l-51.6-73.46" stroke="#3a414a" stroke-width="8" fill="none"/><path d="M669.87 550.33l-1.53 1.08-4.08-5.8 5.6-3.95zM619.28 467.74l-5.6 3.94V463l1.52-1.07z" stroke="#3a414a" stroke-width=".05" fill="#3a414a"/><path d="M634.67 538a6 6 0 0 1 6-6H1034a6 6 0 0 1 6 6v10.67a6 6 0 0 1-6 6H640.67a6 6 0 0 1-6-6zM634.67 309.33a6 6 0 0 1 6-6H1034a6 6 0 0 1 6 6V320a6 6 0 0 1-6 6H640.67a6 6 0 0 1-6-6z" stroke="#000" stroke-width="2"/><path d="M1034.67 322.33a6 6 0 0 1 6-6h8a6 6 0 0 1 6 6V537a6 6 0 0 1-6 6h-8a6 6 0 0 1-6-6zM614.67 322.33a6 6 0 0 1 6-6h8a6 6 0 0 1 6 6V537a6 6 0 0 1-6 6h-8a6 6 0 0 1-6-6z" stroke="#000" stroke-width="2"/><defs><path d="M1196 0H869c0-31-56-136-169-317-120-193-205-289-255-289h-30c0 152 4 354 11 606H144c16-357 18-952 0-1302h282c-7 185-11 358-11 520h22c29 0 103-82 222-246 115-159 173-251 173-274h298c0 22-61 105-183 249-126 149-218 243-276 284v15c68 35 175 167 321 395 136 212 204 332 204 359" id="b"/><path fill="#1071e5" d="M1279 0H959c0-44-30-169-91-374H406C343-172 312-47 312 0H11c0-26 77-239 233-640s234-621 234-662h378c0 38 71 255 212 652S1279-36 1279 0zM817-565c-114-344-171-530-171-558h-16c0 26-59 212-177 558h364" id="c"/><path fill="#1071e5" d="M427 0H144c16-366 18-948 0-1302h283c-18 345-16 947 0 1302" id="d"/><g id="a"><use transform="matrix(0.10416666666666667,0,0,0.10416666666666667,0,0)" xlink:href="#b"/><use transform="matrix(0.10416666666666667,0,0,0.10416666666666667,125.72916666666667,0)" xlink:href="#c"/><use transform="matrix(0.10416666666666667,0,0,0.10416666666666667,260.1041666666667,0)" xlink:href="#d"/></g></defs></g></svg>