<svg xmlns="http://www.w3.org/2000/svg" xmlns:xlink="http://www.w3.org/1999/xlink" xmlns:lucid="lucid" width="1113.96" height="620.36"><g transform="translate(-223.52821122740323 550.4848602172555)" lucid:page-tab-id="X9SHHfn8tQ8z"><path d="M0-1000h1500V500H0z" fill="#fff"/><path d="M224.53-222.67a6 6 0 0 1 6-6h346.15a6 6 0 0 1 6 6V27a6 6 0 0 1-6 6H230.53a6 6 0 0 1-6-6z" stroke="#000" stroke-width="2" fill="#fff"/><use xlink:href="#a" transform="matrix(1,0,0,1,229.52821122740323,-223.6655356868393) translate(0 16.791666666666668)"/><use xlink:href="#b" transform="matrix(1,0,0,1,229.52821122740323,-223.6655356868393) translate(0 37.76432291666667)"/><use xlink:href="#c" transform="matrix(1,0,0,1,229.52821122740323,-223.6655356868393) translate(19.500000000000004 37.76432291666667)"/><use xlink:href="#d" transform="matrix(1,0,0,1,229.52821122740323,-223.6655356868393) translate(34.10807291666667 37.76432291666667)"/><use xlink:href="#e" transform="matrix(1,0,0,1,229.52821122740323,-223.6655356868393) translate(159.36848958333334 37.76432291666667)"/><use xlink:href="#b" transform="matrix(1,0,0,1,229.52821122740323,-223.6655356868393) translate(0 58.73697916666667)"/><use xlink:href="#f" transform="matrix(1,0,0,1,229.52821122740323,-223.6655356868393) translate(19.500000000000004 58.73697916666667)"/><use xlink:href="#g" transform="matrix(1,0,0,1,229.52821122740323,-223.6655356868393) translate(160.01171875000003 58.73697916666667)"/><use xlink:href="#e" transform="matrix(1,0,0,1,229.52821122740323,-223.6655356868393) translate(196.18489583333337 58.73697916666667)"/><use xlink:href="#b" transform="matrix(1,0,0,1,229.52821122740323,-223.6655356868393) translate(0 79.70963541666667)"/><use xlink:href="#h" transform="matrix(1,0,0,1,229.52821122740323,-223.6655356868393) translate(19.500000000000004 79.70963541666667)"/><use xlink:href="#i" transform="matrix(1,0,0,1,229.52821122740323,-223.6655356868393) translate(122.82291666666667 79.70963541666667)"/><use xlink:href="#j" transform="matrix(1,0,0,1,229.52821122740323,-223.6655356868393) translate(239.38281250000003 79.70963541666667)"/><use xlink:href="#k" transform="matrix(1,0,0,1,229.52821122740323,-223.6655356868393) translate(292.05989583333337 79.70963541666667)"/><use xlink:href="#l" transform="matrix(1,0,0,1,229.52821122740323,-223.6655356868393) translate(0 100.68229166666667)"/><use xlink:href="#m" transform="matrix(1,0,0,1,229.52821122740323,-223.6655356868393) translate(95.80729166666667 100.68229166666667)"/><use xlink:href="#n" transform="matrix(1,0,0,1,229.52821122740323,-223.6655356868393) translate(151.54817708333334 100.68229166666667)"/><use xlink:href="#o" transform="matrix(1,0,0,1,229.52821122740323,-223.6655356868393) translate(195.66015625 100.68229166666667)"/><use xlink:href="#e" transform="matrix(1,0,0,1,229.52821122740323,-223.6655356868393) translate(222.16796875 100.68229166666667)"/><use xlink:href="#b" transform="matrix(1,0,0,1,229.52821122740323,-223.6655356868393) translate(0 121.65494791666667)"/><use xlink:href="#p" transform="matrix(1,0,0,1,229.52821122740323,-223.6655356868393) translate(19.500000000000004 121.65494791666667)"/><use xlink:href="#q" transform="matrix(1,0,0,1,229.52821122740323,-223.6655356868393) translate(0 142.62760416666666)"/><use xlink:href="#r" transform="matrix(1,0,0,1,229.52821122740323,-223.6655356868393) translate(39.00000000000001 142.62760416666666)"/><use xlink:href="#s" transform="matrix(1,0,0,1,229.52821122740323,-223.6655356868393) translate(125.14192708333334 142.62760416666666)"/><use xlink:href="#q" transform="matrix(1,0,0,1,229.52821122740323,-223.6655356868393) translate(0 163.60026041666666)"/><use xlink:href="#t" transform="matrix(1,0,0,1,229.52821122740323,-223.6655356868393) translate(39.00000000000001 163.60026041666666)"/><use xlink:href="#e" transform="matrix(1,0,0,1,229.52821122740323,-223.6655356868393) translate(126.69075520833334 163.60026041666666)"/><use xlink:href="#b" transform="matrix(1,0,0,1,229.52821122740323,-223.6655356868393) translate(0 184.57291666666666)"/><use xlink:href="#u" transform="matrix(1,0,0,1,229.52821122740323,-223.6655356868393) translate(19.500000000000004 184.57291666666666)"/><use xlink:href="#v" transform="matrix(1,0,0,1,229.52821122740323,-223.6655356868393) translate(141.7897135416667 184.57291666666666)"/><use xlink:href="#e" transform="matrix(1,0,0,1,229.52821122740323,-223.6655356868393) translate(325.7278645833334 184.57291666666666)"/><use xlink:href="#b" transform="matrix(1,0,0,1,229.52821122740323,-223.6655356868393) translate(0 205.54557291666666)"/><use xlink:href="#w" transform="matrix(1,0,0,1,229.52821122740323,-223.6655356868393) translate(19.500000000000004 205.54557291666666)"/><use xlink:href="#x" transform="matrix(1,0,0,1,229.52821122740323,-223.6655356868393) translate(185.57161458333331 205.54557291666666)"/><use xlink:href="#e" transform="matrix(1,0,0,1,229.52821122740323,-223.6655356868393) translate(323.76432291666663 205.54557291666666)"/><use xlink:href="#b" transform="matrix(1,0,0,1,229.52821122740323,-223.6655356868393) translate(0 226.51822916666666)"/><use xlink:href="#y" transform="matrix(1,0,0,1,229.52821122740323,-223.6655356868393) translate(19.500000000000004 226.51822916666666)"/><use xlink:href="#i" transform="matrix(1,0,0,1,229.52821122740323,-223.6655356868393) translate(138.95442708333334 226.51822916666666)"/><use xlink:href="#z" transform="matrix(1,0,0,1,229.52821122740323,-223.6655356868393) translate(255.51432291666669 226.51822916666666)"/><use xlink:href="#e" transform="matrix(1,0,0,1,229.52821122740323,-223.6655356868393) translate(316.265625 226.51822916666666)"/><use xlink:href="#A" transform="matrix(1,0,0,1,229.52821122740323,-223.6655356868393) translate(0 247.49088541666666)"/><path d="M621-543.5a6 6 0 0 1 6-6h352.33a6 6 0 0 1 6 6v265.95a6 6 0 0 1-6 6H627a6 6 0 0 1-6-6z" stroke="#000" stroke-width="2" fill="none"/><path d="M621-543.5a6 6 0 0 1 6-6h352.33a6 6 0 0 1 6 6v28a6 6 0 0 1-6 6H627a6 6 0 0 1-6-6z" stroke="#000" stroke-width="2" fill="#fff"/><path d="M949.33-539.5a6 6 0 0 1 6-6h20a6 6 0 0 1 6 6v20a6 6 0 0 1-6 6h-20a6 6 0 0 1-6-6zM957.33-537.5l16 16m0-16l-16 16M913.33-539.5a6 6 0 0 1 6-6h20a6 6 0 0 1 6 6v20a6 6 0 0 1-6 6h-20a6 6 0 0 1-6-6z" stroke="#000" stroke-width="2" fill="none"/><path d="M921.33-537.5h16v16h-16zM877.33-539.5a6 6 0 0 1 6-6h20a6 6 0 0 1 6 6v20a6 6 0 0 1-6 6h-20a6 6 0 0 1-6-6zM901.33-521.5h-16" stroke="#000" stroke-width="2" fill="none"/><use xlink:href="#B" transform="matrix(1,0,0,1,640.9903391508888,-549.4848602172555) translate(94.14605034722223 28.08376736111111)"/><use xlink:href="#C" transform="matrix(1,0,0,1,640.9903391508888,-549.4848602172555) translate(185.51974826388889 28.08376736111111)"/><path d="M648.83-474a6 6 0 0 1 6-6h139.8a6 6 0 0 1 6 6v28a6 6 0 0 1-6 6h-139.8a6 6 0 0 1-6-6z" stroke="#000" stroke-width="2" fill="#fff"/><path d="M764.63-470a6 6 0 0 1 6-6h20a6 6 0 0 1 6 6v20a6 6 0 0 1-6 6h-20a6 6 0 0 1-6-6z" stroke="#000" stroke-width="2" fill="none"/><path d="M771.03-466.4h19.2l-9.6 12.8z" stroke="#000" stroke-width="2"/><use xlink:href="#D" transform="matrix(1,0,0,1,660.8259748845279,-480.01220085718296) translate(0 28.08376736111111)"/><use xlink:href="#E" transform="matrix(1,0,0,1,660.8259748845279,-480.01220085718296) translate(75.9548611111111 28.08376736111111)"/><path d="M711.57-334.5a6 6 0 0 1 6-6h109.45a6 6 0 0 1 6 6v18.88a6 6 0 0 1-6 6H717.57a6 6 0 0 1-6-6zM846.46-340.5c-5.12 0-9.26 4.14-9.26 9.26v12.35c0 5.13 4.14 9.28 9.26 9.28h102.92c5.12 0 9.26-4.15 9.26-9.27v-12.34c0-5.12-4.14-9.27-9.26-9.27z" stroke="#000" stroke-width="2" fill="#fff"/><use xlink:href="#F" transform="matrix(1,0,0,1,847.1972545165614,-337.417363151157) translate(17.042751736111107 21.52777777777778)"/><path d="M648.83-440.7a6 6 0 0 1 6-6h109.44a6 6 0 0 1 6 6v80.64a6 6 0 0 1-6 6H654.83a6 6 0 0 1-6-6z" fill="none"/><path d="M648.83-441.26h20v20h-20z" stroke="#000" stroke-width="2" fill="#fff"/><path d="M652.83-433.26l4 6 8-8" stroke="#000" stroke-width="3" fill="none"/><path d="M648.83-410.38h20v20h-20zM648.83-379.5h20v20h-20z" stroke="#000" stroke-width="2" fill="#fff"/><g><use xlink:href="#D" transform="matrix(1,0,0,1,680.8259748845278,-446.6998855578088) translate(0 23.58376736111111)"/><use xlink:href="#E" transform="matrix(1,0,0,1,680.8259748845278,-446.6998855578088) translate(75.9548611111111 23.58376736111111)"/></g><g><use xlink:href="#D" transform="matrix(1,0,0,1,680.8259748845278,-415.81839221957904) translate(0 23.58376736111111)"/><use xlink:href="#G" transform="matrix(1,0,0,1,680.8259748845278,-415.81839221957904) translate(75.9548611111111 23.58376736111111)"/></g><g><use xlink:href="#D" transform="matrix(1,0,0,1,680.8259748845278,-384.93689888134935) translate(0 23.58376736111111)"/><use xlink:href="#H" transform="matrix(1,0,0,1,680.8259748845278,-384.93689888134935) translate(75.9548611111111 23.58376736111111)"/></g><path d="M641.38-334.5a6 6 0 0 1 6-6h48.27a6 6 0 0 1 6 6v18.88a6 6 0 0 1-6 6h-48.27a6 6 0 0 1-6-6z" stroke="#fff" stroke-width="2" fill="#fff"/><g><use xlink:href="#I" transform="matrix(1,0,0,1,651.3822481646062,-337.4173631512324) translate(-22.389756944444443 21.52777777777778)"/></g><path d="M1336.5 57.12c0 6.5-84.6 11.75-188.93 11.75-104.34 0-188.93-5.26-188.93-11.75V-36.9c0-6.5 84.6-11.75 188.93-11.75 104.34 0 188.92 5.26 188.92 11.75z" stroke="#fff" stroke-width="2" fill="#fff"/><path d="M1336.5-36.9c0 6.5-84.6 11.75-188.93 11.75-104.34 0-188.93-5.26-188.93-11.75" stroke="#fff" stroke-width="2" fill="none"/><g><use xlink:href="#J" transform="matrix(1,0,0,1,963.6441745361569,-20.144912388918044) translate(14.693359375 57.34375)"/><use xlink:href="#K" transform="matrix(1,0,0,1,963.6441745361569,-20.144912388918044) translate(237.798828125 57.34375)"/></g><path d="M433.04-319.2l-3.6 5.66-3.3 5.73-3.03 5.8-2.77 5.9-2.52 6-2.27 6.13-2.02 6.22-1.77 6.36-1.52 6.5-1.26 6.67-1 6.83-.75 7.03-.46 7.23-.1 4.53-5.95-.13.1-4.6v-.1l.46-7.37V-244.93l.76-7.16V-252.2l1.04-6.96v-.08h.02v-.04l1.3-6.78v-.1h.02v-.02l1.55-6.63v-.04l.02-.02v-.06l1.82-6.5v-.06h.02v-.04l2.07-6.35v-.06h.02v-.04l2.33-6.24v-.04h.02v-.04h.02v-.02l2.57-6.13v-.04h.02v-.06h.02l2.83-6.03v-.02h.02v-.02l.02-.02v-.04l3.1-5.92v-.02h.02v-.04h.02v-.04h.02l3.37-5.85.02-.02v-.02h.02v-.02h.02v-.02l3.12-4.93h7.2zm160.27-87l-2.04.16-11.2 1.4-10.96 1.86-10.67 2.27-10.34 2.65-10 3-9.6 3.35-9.17 3.63-8.76 3.9-8.34 4.14-7.9 4.34-7.48 4.54-7.06 4.7-6.66 4.82-2.78 2.2h-9.4l2.08-1.8h.02l.02-.02h.02v-.02h.02v-.02h.02l6.35-5.04v-.02h.04v-.02h.02v-.02h.02l6.76-4.92h.02v-.02h.02v-.02h.04v-.02h.02l7.17-4.77h.02v-.02h.04v-.02h.04l7.6-4.6v-.02h.04v-.02h.04v-.02h.02l8.02-4.4v-.02h.04v-.02h.04v-.02h.02l8.46-4.2h.02v-.02h.04v-.02h.04v-.02l8.9-3.95h.02v-.02h.04v-.02h.04l9.3-3.7h.06l.02-.02h.04l9.7-3.38h.04v-.02h.06l.02-.02 10.1-3.05h.06v-.02h.06l10.47-2.7H557.13v-.02l10.8-2.3H568.05l11.1-1.9h.1l11.34-1.43h.1v-.02h.02l2.1-.17z" stroke="#3a414a" stroke-width=".05" fill="#3a414a"/><path d="M406.64-232.68l-.06 3.02h-5.95l.07-3.15z" fill="#3a414a"/><path stroke="#3a414a" stroke-width=".05" fill="#3a414a"/><path d="M610.3-410.04l-14.02 5.34-.46-9.26z" fill="#3a414a"/><path d="M619.9-410.5l-26.4 10.04-.86-17.44zm-20.86 1.56l1.64-.62-1.7-.45z" stroke="#3a414a" stroke-width=".05" fill="#3a414a"/><g><use xlink:href="#L" transform="matrix(1,0,0,1,369.8674689292114,-359.23648149371445) translate(0 30.13888888888889)"/><use xlink:href="#M" transform="matrix(1,0,0,1,369.8674689292114,-359.23648149371445) translate(82.89713541666666 30.13888888888889)"/><use xlink:href="#N" transform="matrix(1,0,0,1,369.8674689292114,-359.23648149371445) translate(120.43402777777777 30.13888888888889)"/></g><path d="M1125.12-337.12v.02h.02v.02h.02v.04h.02v.02l4.5 7.06v.04h.02v.04h.02v.02l4.3 7.45h.02v.04h.02v.02h.02v.04l4.1 7.85h.02v.04h.02v.04h.02v.02l3.9 8.25v.06h.02v.06h.02l3.63 8.65h.02v.04h.02v.04l.02.02 3.35 9.03.02.02v.04h.02v.06h.02l3.05 9.4v.02h.02v.06l.02.02v.02l2.72 9.75v.02h.02v.08l2.37 10.06v.06h.02v.06l1.98 10.35v.06l.02.02v.02l1.56 10.6v.08h.02v.04l.62 5.88-5.92.63-.6-5.82-1.56-10.47-1.95-10.22-2.34-9.94-2.67-9.62-3.02-9.27-3.3-8.9-3.58-8.54-3.83-8.15-4.05-7.74-4.24-7.33-4.4-6.94-4.56-6.56-1.53-2.03h7.38zm-135.07-76.33h.08l7.2.3H997.47l7 .6H1004.6l6.8.87H1011.5l6.63 1.13h.06v.02h.06l6.46 1.38h.06v.02h.06l6.33 1.63h.04v.02h.06v.02l6.2 1.87h.02v.02h.06l.02.02h.02l6.08 2.12h.04v.02h.04v.02h.02l5.98 2.36h.02v.02h.04v.02h.04l5.87 2.62h.02v.02h.04v.02h.04l5.77 2.88h.04v.02h.04v.02h.04l5.68 3.14h.02v.02h.04v.02h.04v.02l5.6 3.4h.04v.02h.04v.02h.02l5.52 3.67h.02v.02h.04v.02h.02v.02h.02l5.43 3.95v.02h.02v.02h.02v.02h.02v.02h.02l1.3 1.02h-10l-.27-.18-5.4-3.6-5.5-3.32-5.56-3.06-5.65-2.8-5.74-2.57-5.84-2.3-5.96-2.1-6.07-1.82-6.2-1.6-6.35-1.34-6.5-1.1-6.68-.83-6.87-.58-7.1-.3h-.63l.06-5.96z" stroke="#3a414a" stroke-width=".05" fill="#3a414a"/><path d="M1159.63-213.92l-5.4-14 9.27-.5z" fill="#3a414a"/><path d="M1160.14-204.3L1150-230.67l17.43-.93zm-1.65-20.86l.62 1.63.45-1.7z" stroke="#3a414a" stroke-width=".05" fill="#3a414a"/><path d="M989.44-413.46l-.06 5.95-3.05-.04v-5.95z" fill="#3a414a"/><path stroke="#3a414a" stroke-width=".05" fill="#3a414a"/><g><use xlink:href="#O" transform="matrix(1,0,0,1,1028.4404441532229,-379.9987160339873) translate(0 30.13888888888889)"/><use xlink:href="#P" transform="matrix(1,0,0,1,1028.4404441532229,-379.9987160339873) translate(38.873697916666664 30.13888888888889)"/><use xlink:href="#Q" transform="matrix(1,0,0,1,1028.4404441532229,-379.9987160339873) translate(104.21006944444443 30.13888888888889)"/></g><path d="M1056.3-197.22a6 6 0 0 1 6-6H1258a6 6 0 0 1 6 6v192.1a6 6 0 0 1-6 6h-195.7a6 6 0 0 1-6-6z" stroke="#fff" stroke-width="2" fill="#fff"/><path d="M1122.06-66.65c0 9.94-9 18-20.07 18-11.1 0-20.08-8.06-20.08-18s8.98-18 20.07-18c11.07 0 20.06 8.06 20.06 18zM1226.8-24.58c0 9.94-9 18-20.08 18-11.1 0-20.07-8.06-20.07-18s8.98-18 20.07-18c11.08 0 20.07 8.06 20.07 18zM1226.8-143.78c0 9.94-9 18-20.08 18-11.1 0-20.07-8.06-20.07-18s8.98-18 20.07-18c11.08 0 20.07 8.06 20.07 18z" stroke="#000" stroke-width="2"/><path d="M1206.72-121.28v62.6" stroke="#3a414a" stroke-width="7" fill="none"/><path d="M1206.67-124.78l1.9-.07 1.62-.33v4h-6.96v-4.02z" stroke="#3a414a" stroke-width=".05" fill="#3a414a"/><path d="M1216.72-67.9l-10 17.32-10-17.33m10 17.32v-8.5M1184.28-33.6l-49.1-19.7" stroke="#3a414a" stroke-width="7" fill="none"/><path d="M1189.45-35.26l-1.66 2.3-1.55 3.9-3.35-1.34 2.6-6.45z" stroke="#3a414a" stroke-width=".05" fill="#3a414a"/><path d="M1140.02-40.6l-12.35-15.73 19.8-2.83m-19.8 2.83l7.9 3.16" stroke="#3a414a" stroke-width="7" fill="none"/><path d="M1135.34-177.75c0 9.94-9 18-20.07 18-11.1 0-20.07-8.06-20.07-18 0-9.95 8.98-18 20.07-18 11.08 0 20.07 8.05 20.07 18z" stroke="#000" stroke-width="2"/><path d="M1187.68-129.76l-57.3 42.2" stroke="#3a414a" stroke-width="7" fill="none"/><path d="M1188.5-134.2l3.1 3.68 1.5 1.07-3.43 2.54-4.12-5.6 2.78-2.06z" stroke="#3a414a" stroke-width=".05" fill="#3a414a"/><path d="M1143.72-84.97l-19.88 2.22 8.02-18.32m-8.02 18.32l6.85-5.04M1184.05-152.2l-35.23-13.1" stroke="#3a414a" stroke-width="7" fill="none"/><path d="M1189.13-154.02l-1.34 1.87-1.63 4.1-.04.33-3.38-1.26 2.42-6.5z" stroke="#3a414a" stroke-width=".05" fill="#3a414a"/><path d="M1153.97-152.7l-12.75-15.4 19.72-3.36m-19.72 3.35l7.97 2.95" stroke="#3a414a" stroke-width="7" fill="none"/><defs><path d="M295 13c-75 0-135-60-135-135s60-135 135-135 135 60 135 135S370 13 295 13zm0-809c-75 0-135-60-135-135s60-135 135-135 135 60 135 135-60 135-135 135" id="R"/><path d="M180 0v-1490h510c348 0 508 194 508 460 0 198-88 351-276 417L1256 0h-220L726-579c-117 2-238 0-356 1V0H180zm190-747h312c235 0 327-108 327-283 0-177-92-293-329-293H370v576" id="S"/><path d="M628 24c-324 0-524-230-524-574 0-343 198-582 503-582 237 0 487 146 487 559v75H286c9 234 145 362 343 362 132 0 231-58 273-172l174 48C1024-91 857 24 628 24zM287-650h624c-17-190-120-322-304-322-192 0-309 151-320 322" id="T"/><path d="M1096 418H916v-591h-14C865-111 790 24 577 24c-279 0-473-224-473-580 0-354 195-576 474-576 218 0 287 134 324 193h20v-179h174V418zM604-137c203 0 314-172 314-421 0-247-108-413-314-413-212 0-317 181-317 413 0 235 108 421 317 421" id="U"/><path d="M537 14c-226 0-379-139-379-422v-710h180v695c0 172 97 275 253 275 160 0 281-109 281-300v-670h181V0H879v-209C806-46 684 14 537 14" id="V"/><path d="M158 0v-1118h180V0H158zm91-1301c-68 0-125-53-125-119s57-119 125-119c69 0 126 53 126 119s-57 119-126 119" id="W"/><path d="M158 0v-1118h174v172h12c41-113 157-188 290-188 26 0 70 2 91 3v181c-11-2-60-10-108-10-161 0-279 109-279 260V0H158" id="X"/><path d="M158 0v-1118h175l1 205c55-151 181-225 313-225 147 0 245 90 285 228 53-141 190-228 352-228 194 0 352 125 352 384V0h-181v-749c0-161-105-225-225-225-151 0-243 103-243 244V0H807v-767c0-124-93-207-219-207-131 0-250 92-250 270V0H158" id="Y"/><path d="M338-670V0H158v-1118h173l1 207c72-158 192-221 342-221 226 0 378 139 378 422V0H872v-695c0-172-96-275-252-275-161 0-282 109-282 300" id="Z"/><path d="M598-1118v154H368v674c0 100 37 144 132 144 23 0 62-6 92-12L629-6c-37 13-88 20-134 20-193 0-307-107-307-290v-688H20v-154h168v-266h180v266h230" id="aa"/><path d="M798-719v166H144v-166h654" id="ab"/><path d="M154 0v-137l495-537c165-179 249-281 249-418 0-156-121-253-280-253-170 0-278 110-278 278H158c0-264 200-443 465-443 266 0 455 183 455 416 0 161-73 288-336 568L416-179v12h687V0H154" id="ac"/><path d="M295 13c-75 0-135-60-135-135s60-135 135-135 135 60 135 135S370 13 295 13" id="ad"/><path d="M653-1490V0H466v-1314h-10L96-1047v-204l324-239h233" id="ae"/><path d="M646 20c-332 0-524-278-524-764 0-483 194-766 524-766s524 283 524 766c0 485-191 764-524 764zm0-166c218 0 341-220 341-598 0-380-123-601-341-601s-341 222-341 601c0 378 123 598 341 598" id="af"/><path d="M120-303v-155l652-1032h231v1020h202v167h-202V0H821v-303H120zm702-167v-782h-12L323-482v12h499" id="ag"/><g id="a"><use transform="matrix(0.008463541666666668,0,0,0.008463541666666668,0,0)" xlink:href="#R"/><use transform="matrix(0.008463541666666668,0,0,0.008463541666666668,4.993489583333334,0)" xlink:href="#S"/><use transform="matrix(0.008463541666666668,0,0,0.008463541666666668,15.894531250000002,0)" xlink:href="#T"/><use transform="matrix(0.008463541666666668,0,0,0.008463541666666668,26.000000000000004,0)" xlink:href="#U"/><use transform="matrix(0.008463541666666668,0,0,0.008463541666666668,36.61328125000001,0)" xlink:href="#V"/><use transform="matrix(0.008463541666666668,0,0,0.008463541666666668,46.86263020833334,0)" xlink:href="#W"/><use transform="matrix(0.008463541666666668,0,0,0.008463541666666668,51.06054687500001,0)" xlink:href="#X"/><use transform="matrix(0.008463541666666668,0,0,0.008463541666666668,57.29817708333334,0)" xlink:href="#T"/><use transform="matrix(0.008463541666666668,0,0,0.008463541666666668,67.40364583333334,0)" xlink:href="#Y"/><use transform="matrix(0.008463541666666668,0,0,0.008463541666666668,82.58723958333334,0)" xlink:href="#T"/><use transform="matrix(0.008463541666666668,0,0,0.008463541666666668,92.69270833333334,0)" xlink:href="#Z"/><use transform="matrix(0.008463541666666668,0,0,0.008463541666666668,102.93359375000001,0)" xlink:href="#aa"/><use transform="matrix(0.008463541666666668,0,0,0.008463541666666668,108.26562500000001,0)" xlink:href="#ab"/><use transform="matrix(0.008463541666666668,0,0,0.008463541666666668,115.65429687500001,0)" xlink:href="#ac"/><use transform="matrix(0.008463541666666668,0,0,0.008463541666666668,126.22526041666669,0)" xlink:href="#ad"/><use transform="matrix(0.008463541666666668,0,0,0.008463541666666668,129.72070312500003,0)" xlink:href="#ae"/><use transform="matrix(0.008463541666666668,0,0,0.008463541666666668,136.77083333333337,0)" xlink:href="#ad"/><use transform="matrix(0.008463541666666668,0,0,0.008463541666666668,141.32421875000006,0)" xlink:href="#af"/><use transform="matrix(0.008463541666666668,0,0,0.008463541666666668,152.25911458333337,0)" xlink:href="#ag"/></g><path d="M471 26C259 26 90-98 90-318c0-256 228-303 435-329 202-27 287-16 287-108 0-139-79-219-234-219-161 0-248 86-283 164l-173-57c86-203 278-265 451-265 150 0 419 46 419 395V0H815v-152h-12C765-73 660 26 471 26zm31-159c199 0 310-134 310-271v-155c-30 35-226 55-295 64-131 17-246 59-246 186 0 116 97 176 231 176" id="ah"/><use transform="matrix(0.008463541666666668,0,0,0.008463541666666668,0,0)" xlink:href="#ah" id="c"/><path d="M538 24C308 24 148-78 108-271l171-41c32 123 123 178 257 178 156 0 256-77 256-169 0-77-54-128-164-154l-186-44c-203-48-300-148-300-305 0-192 176-326 414-326 230 0 351 112 402 269l-163 42c-31-80-94-158-238-158-133 0-233 69-233 162 0 83 57 129 188 160l169 40c203 48 298 149 298 302 0 196-179 339-441 339" id="ai"/><path d="M338-670V0H158v-1490h180v566c73-149 190-208 336-208 226 0 379 139 379 422V0H872v-695c0-172-96-275-252-275-161 0-282 109-282 300" id="aj"/><path d="M180 0v-1490h224l606 953c40 63 108 177 176 312-27-437-7-821-13-1265h190V0h-226C860-448 622-778 356-1262c27 476 11 792 15 1262H180" id="ak"/><path d="M613 24c-304 0-509-231-509-576 0-350 205-580 509-580 305 0 511 230 511 580 0 345-206 576-511 576zm0-161c226 0 329-195 329-415 0-222-103-419-329-419-223 0-326 196-326 419 0 220 103 415 326 415" id="al"/><path d="M577 24c-279 0-473-224-473-580 0-354 195-576 474-576 218 0 287 134 324 193h14v-551h180V0H922v-173h-20C865-111 790 24 577 24zm27-161c203 0 314-172 314-421 0-247-108-413-314-413-212 0-317 181-317 413 0 235 108 421 317 421" id="am"/><path d="M657 26c-323 0-524-166-541-416h195c15 169 171 246 346 246 202 0 356-106 356-265 5-203-294-238-475-293-239-73-380-191-380-389 0-252 224-419 512-419 294 0 499 171 508 396H992c-17-145-151-228-328-228-193 0-321 102-321 242 0 156 175 211 284 241l149 41c160 44 422 134 422 412 0 244-197 432-541 432" id="an"/><path d="M158 418v-1536h174v179h20c37-59 106-193 324-193 279 0 474 222 474 576 0 356-194 580-473 580-213 0-288-135-325-197h-14v591H158zm492-555c209 0 317-186 317-421 0-232-105-413-317-413-206 0-314 166-314 413 0 249 111 421 314 421" id="ao"/><g id="d"><use transform="matrix(0.008463541666666668,0,0,0.008463541666666668,0,0)" xlink:href="#ai"/><use transform="matrix(0.008463541666666668,0,0,0.008463541666666668,9.149088541666668,0)" xlink:href="#aj"/><use transform="matrix(0.008463541666666668,0,0,0.008463541666666668,19.3984375,0)" xlink:href="#R"/><use transform="matrix(0.008463541666666668,0,0,0.008463541666666668,24.391927083333336,0)" xlink:href="#ak"/><use transform="matrix(0.008463541666666668,0,0,0.008463541666666668,37.451171875,0)" xlink:href="#al"/><use transform="matrix(0.008463541666666668,0,0,0.008463541666666668,47.84440104166667,0)" xlink:href="#am"/><use transform="matrix(0.008463541666666668,0,0,0.008463541666666668,58.45768229166667,0)" xlink:href="#T"/><use transform="matrix(0.008463541666666668,0,0,0.008463541666666668,68.56315104166667,0)" xlink:href="#an"/><use transform="matrix(0.008463541666666668,0,0,0.008463541666666668,79.68424479166667,0)" xlink:href="#aj"/><use transform="matrix(0.008463541666666668,0,0,0.008463541666666668,89.93359375,0)" xlink:href="#ah"/><use transform="matrix(0.008463541666666668,0,0,0.008463541666666668,99.66666666666667,0)" xlink:href="#ao"/><use transform="matrix(0.008463541666666668,0,0,0.008463541666666668,110.27994791666667,0)" xlink:href="#T"/></g><path d="M128 359l88-567h206L266 359H128zM323-796c-75 0-135-60-135-135s60-135 135-135 135 60 135 135-60 135-135 135" id="ap"/><use transform="matrix(0.008463541666666668,0,0,0.008463541666666668,0,0)" xlink:href="#ap" id="e"/><path d="M678-1118v154H420V0H240v-964H20v-154h220v-149c0-194 155-293 318-293 85 0 141 18 168 30l-50 154c-19-6-47-17-97-17-111 0-159 58-159 166v109h258" id="aq"/><path d="M645 0H180v-1490h484c435 0 692 280 692 742 0 466-257 748-711 748zM370-168h263c363 0 539-218 539-580 0-358-176-574-521-574H370v1154" id="ar"/><path d="M180 0v-1490h528c311 0 458 177 458 395 0 191-114 278-244 313v14c139 9 302 137 302 371 0 225-148 397-499 397H180zm190-168h350c232 0 321-102 321-231 0-149-120-277-311-277H370v508zm0-668h328c160 0 286-101 286-255 0-129-87-231-280-231H370v486" id="as"/><path d="M140 405l46-156c120 36 205 19 263-150l32-93L54-1118h197c107 313 237 620 324 950 87-331 219-637 326-950h196L606 167c-68 178-176 259-334 259-64 0-113-12-132-21" id="at"/><g id="f"><use transform="matrix(0.008463541666666668,0,0,0.008463541666666668,0,0)" xlink:href="#X"/><use transform="matrix(0.008463541666666668,0,0,0.008463541666666668,6.237630208333334,0)" xlink:href="#am"/><use transform="matrix(0.008463541666666668,0,0,0.008463541666666668,16.850911458333336,0)" xlink:href="#aq"/><use transform="matrix(0.008463541666666668,0,0,0.008463541666666668,22.876953125,0)" xlink:href="#ai"/><use transform="matrix(0.008463541666666668,0,0,0.008463541666666668,32.02604166666667,0)" xlink:href="#R"/><use transform="matrix(0.008463541666666668,0,0,0.008463541666666668,37.01953125000001,0)" xlink:href="#W"/><use transform="matrix(0.008463541666666668,0,0,0.008463541666666668,41.21744791666667,0)" xlink:href="#ai"/><use transform="matrix(0.008463541666666668,0,0,0.008463541666666668,50.36653645833334,0)" xlink:href="#ar"/><use transform="matrix(0.008463541666666668,0,0,0.008463541666666668,62.87565104166668,0)" xlink:href="#T"/><use transform="matrix(0.008463541666666668,0,0,0.008463541666666668,72.98111979166669,0)" xlink:href="#aq"/><use transform="matrix(0.008463541666666668,0,0,0.008463541666666668,79.39648437500001,0)" xlink:href="#W"/><use transform="matrix(0.008463541666666668,0,0,0.008463541666666668,83.59440104166667,0)" xlink:href="#Z"/><use transform="matrix(0.008463541666666668,0,0,0.008463541666666668,93.83528645833336,0)" xlink:href="#T"/><use transform="matrix(0.008463541666666668,0,0,0.008463541666666668,103.94075520833336,0)" xlink:href="#am"/><use transform="matrix(0.008463541666666668,0,0,0.008463541666666668,114.55403645833337,0)" xlink:href="#as"/><use transform="matrix(0.008463541666666668,0,0,0.008463541666666668,125.89518229166669,0)" xlink:href="#at"/></g><g id="g"><use transform="matrix(0.008463541666666668,0,0,0.008463541666666668,0,0)" xlink:href="#al"/><use transform="matrix(0.008463541666666668,0,0,0.008463541666666668,10.393229166666668,0)" xlink:href="#Z"/><use transform="matrix(0.008463541666666668,0,0,0.008463541666666668,20.634114583333336,0)" xlink:href="#aa"/><use transform="matrix(0.008463541666666668,0,0,0.008463541666666668,26.304687500000004,0)" xlink:href="#R"/></g><path d="M611 442c-248 0-391-105-460-228l146-94c47 65 117 165 314 165 178 0 307-82 307-266v-224h-17C863-141 792-18 576-18c-268 0-472-195-472-546 0-346 197-568 476-568 216 0 288 133 326 193h17v-179h175V29c0 289-215 413-487 413zm-5-620c203 0 314-146 314-390 0-237-108-403-314-403-213 0-319 180-319 403 0 230 109 390 319 390" id="au"/><g id="h"><use transform="matrix(0.008463541666666668,0,0,0.008463541666666668,0,0)" xlink:href="#ai"/><use transform="matrix(0.008463541666666668,0,0,0.008463541666666668,9.149088541666668,0)" xlink:href="#aj"/><use transform="matrix(0.008463541666666668,0,0,0.008463541666666668,19.3984375,0)" xlink:href="#R"/><use transform="matrix(0.008463541666666668,0,0,0.008463541666666668,24.391927083333336,0)" xlink:href="#Y"/><use transform="matrix(0.008463541666666668,0,0,0.008463541666666668,39.575520833333336,0)" xlink:href="#T"/><use transform="matrix(0.008463541666666668,0,0,0.008463541666666668,49.680989583333336,0)" xlink:href="#ai"/><use transform="matrix(0.008463541666666668,0,0,0.008463541666666668,58.830078125,0)" xlink:href="#ai"/><use transform="matrix(0.008463541666666668,0,0,0.008463541666666668,67.97916666666667,0)" xlink:href="#ah"/><use transform="matrix(0.008463541666666668,0,0,0.008463541666666668,77.71223958333334,0)" xlink:href="#au"/><use transform="matrix(0.008463541666666668,0,0,0.008463541666666668,88.34244791666669,0)" xlink:href="#T"/></g><path d="M232-923l-22-567h194l-22 567H232zm340 0l-22-567h194l-22 567H572" id="av"/><g id="i"><use transform="matrix(0.008463541666666668,0,0,0.008463541666666668,0,0)" xlink:href="#av"/><use transform="matrix(0.008463541666666668,0,0,0.008463541666666668,8.074218750000002,0)" xlink:href="#S"/><use transform="matrix(0.008463541666666668,0,0,0.008463541666666668,18.97526041666667,0)" xlink:href="#T"/><use transform="matrix(0.008463541666666668,0,0,0.008463541666666668,29.08072916666667,0)" xlink:href="#U"/><use transform="matrix(0.008463541666666668,0,0,0.008463541666666668,39.69401041666667,0)" xlink:href="#V"/><use transform="matrix(0.008463541666666668,0,0,0.008463541666666668,49.94335937500001,0)" xlink:href="#W"/><use transform="matrix(0.008463541666666668,0,0,0.008463541666666668,54.14127604166667,0)" xlink:href="#X"/><use transform="matrix(0.008463541666666668,0,0,0.008463541666666668,60.37890625000001,0)" xlink:href="#T"/><use transform="matrix(0.008463541666666668,0,0,0.008463541666666668,70.48437500000001,0)" xlink:href="#Y"/><use transform="matrix(0.008463541666666668,0,0,0.008463541666666668,85.66796875000001,0)" xlink:href="#T"/><use transform="matrix(0.008463541666666668,0,0,0.008463541666666668,95.77343750000001,0)" xlink:href="#Z"/><use transform="matrix(0.008463541666666668,0,0,0.008463541666666668,106.01432291666669,0)" xlink:href="#aa"/></g><g id="j"><use transform="matrix(0.008463541666666668,0,0,0.008463541666666668,0,0)" xlink:href="#ac"/><use transform="matrix(0.008463541666666668,0,0,0.008463541666666668,10.570963541666668,0)" xlink:href="#ad"/><use transform="matrix(0.008463541666666668,0,0,0.008463541666666668,14.066406250000002,0)" xlink:href="#ae"/><use transform="matrix(0.008463541666666668,0,0,0.008463541666666668,21.116536458333336,0)" xlink:href="#ad"/><use transform="matrix(0.008463541666666668,0,0,0.008463541666666668,25.669921875,0)" xlink:href="#af"/><use transform="matrix(0.008463541666666668,0,0,0.008463541666666668,36.604817708333336,0)" xlink:href="#ag"/></g><path d="M180 0v-1490h908v168H370v486h669v168H370v500h727V0H180" id="aw"/><path d="M613 24c-304 0-509-231-509-576 0-350 205-580 509-580 216 0 392 114 453 309l-173 49c-33-115-133-197-280-197-223 0-326 196-326 419 0 220 103 415 326 415 150 0 252-85 285-206l172 49C1010-95 832 24 613 24" id="ax"/><g id="k"><use transform="matrix(0.008463541666666668,0,0,0.008463541666666668,0,0)" xlink:href="#aw"/><use transform="matrix(0.008463541666666668,0,0,0.008463541666666668,10.418619791666668,0)" xlink:href="#ah"/><use transform="matrix(0.008463541666666668,0,0,0.008463541666666668,20.151692708333336,0)" xlink:href="#ax"/><use transform="matrix(0.008463541666666668,0,0,0.008463541666666668,30.054036458333336,0)" xlink:href="#aj"/></g><path d="M481 0L54-1118h197c107 314 236 620 325 951 87-331 217-637 324-951h197L670 0H481" id="ay"/><path d="M677 24c-213 0-288-135-325-197h-20V0H158v-1490h180v551h14c37-59 106-193 324-193 279 0 474 222 474 576 0 356-194 580-473 580zm-27-161c209 0 317-186 317-421 0-232-105-413-317-413-206 0-314 166-314 413 0 249 111 421 314 421" id="az"/><path d="M338-1490V0H158v-1490h180" id="aA"/><g id="l"><use transform="matrix(0.008463541666666668,0,0,0.008463541666666668,0,0)" xlink:href="#ay"/><use transform="matrix(0.008463541666666668,0,0,0.008463541666666668,9.402994791666668,0)" xlink:href="#al"/><use transform="matrix(0.008463541666666668,0,0,0.008463541666666668,19.796223958333336,0)" xlink:href="#ax"/><use transform="matrix(0.008463541666666668,0,0,0.008463541666666668,29.86783854166667,0)" xlink:href="#ah"/><use transform="matrix(0.008463541666666668,0,0,0.008463541666666668,39.60091145833335,0)" xlink:href="#az"/><use transform="matrix(0.008463541666666668,0,0,0.008463541666666668,50.21419270833334,0)" xlink:href="#V"/><use transform="matrix(0.008463541666666668,0,0,0.008463541666666668,60.46354166666667,0)" xlink:href="#aA"/><use transform="matrix(0.008463541666666668,0,0,0.008463541666666668,64.66145833333334,0)" xlink:href="#ah"/><use transform="matrix(0.008463541666666668,0,0,0.008463541666666668,74.39453125000001,0)" xlink:href="#X"/><use transform="matrix(0.008463541666666668,0,0,0.008463541666666668,81.19075520833334,0)" xlink:href="#at"/></g><path d="M180 0v-1490h270l367 940c28 72 75 218 110 339 35-117 81-264 110-339l362-940h271V0h-187c2-448-5-837 7-1287-157 497-311 829-483 1287H842C666-458 514-784 354-1284c12 438 5 843 7 1284H180" id="aB"/><path d="M763 24c-353 0-583-224-583-531v-983h190v968c0 214 149 370 393 370 243 0 391-156 391-370v-968h190v983c0 307-230 531-581 531" id="aC"/><path d="M98-1322v-168h1126v168H757V0H567v-1322H98" id="aD"/><g id="m"><use transform="matrix(0.008463541666666668,0,0,0.008463541666666668,0,0)" xlink:href="#aB"/><use transform="matrix(0.008463541666666668,0,0,0.008463541666666668,15.657552083333336,0)" xlink:href="#aC"/><use transform="matrix(0.008463541666666668,0,0,0.008463541666666668,28.555989583333336,0)" xlink:href="#an"/><use transform="matrix(0.008463541666666668,0,0,0.008463541666666668,39.677083333333336,0)" xlink:href="#aD"/></g><g id="n"><use transform="matrix(0.008463541666666668,0,0,0.008463541666666668,0,0)" xlink:href="#aj"/><use transform="matrix(0.008463541666666668,0,0,0.008463541666666668,10.249348958333334,0)" xlink:href="#ah"/><use transform="matrix(0.008463541666666668,0,0,0.008463541666666668,19.728515625,0)" xlink:href="#ay"/><use transform="matrix(0.008463541666666668,0,0,0.008463541666666668,29.131510416666664,0)" xlink:href="#T"/></g><g id="o"><use transform="matrix(0.008463541666666668,0,0,0.008463541666666668,0,0)" xlink:href="#ad"/><use transform="matrix(0.008463541666666668,0,0,0.008463541666666668,4.993489583333334,0)" xlink:href="#ad"/><use transform="matrix(0.008463541666666668,0,0,0.008463541666666668,9.986979166666668,0)" xlink:href="#ad"/><use transform="matrix(0.008463541666666668,0,0,0.008463541666666668,13.558593750000002,0)" xlink:href="#av"/></g><g id="p"><use transform="matrix(0.008463541666666668,0,0,0.008463541666666668,0,0)" xlink:href="#ai"/><use transform="matrix(0.008463541666666668,0,0,0.008463541666666668,9.149088541666668,0)" xlink:href="#aj"/><use transform="matrix(0.008463541666666668,0,0,0.008463541666666668,19.3984375,0)" xlink:href="#R"/><use transform="matrix(0.008463541666666668,0,0,0.008463541666666668,24.391927083333336,0)" xlink:href="#ao"/><use transform="matrix(0.008463541666666668,0,0,0.008463541666666668,35.005208333333336,0)" xlink:href="#X"/><use transform="matrix(0.008463541666666668,0,0,0.008463541666666668,41.24283854166667,0)" xlink:href="#al"/><use transform="matrix(0.008463541666666668,0,0,0.008463541666666668,51.63606770833334,0)" xlink:href="#ao"/><use transform="matrix(0.008463541666666668,0,0,0.008463541666666668,62.24934895833334,0)" xlink:href="#T"/><use transform="matrix(0.008463541666666668,0,0,0.008463541666666668,72.35481770833334,0)" xlink:href="#X"/><use transform="matrix(0.008463541666666668,0,0,0.008463541666666668,79.15104166666667,0)" xlink:href="#aa"/><use transform="matrix(0.008463541666666668,0,0,0.008463541666666668,85.16015625000001,0)" xlink:href="#at"/></g><g id="r"><use transform="matrix(0.008463541666666668,0,0,0.008463541666666668,0,0)" xlink:href="#R"/><use transform="matrix(0.008463541666666668,0,0,0.008463541666666668,4.993489583333334,0)" xlink:href="#am"/><use transform="matrix(0.008463541666666668,0,0,0.008463541666666668,15.606770833333336,0)" xlink:href="#T"/><use transform="matrix(0.008463541666666668,0,0,0.008463541666666668,25.712239583333336,0)" xlink:href="#aq"/><use transform="matrix(0.008463541666666668,0,0,0.008463541666666668,32.12760416666667,0)" xlink:href="#W"/><use transform="matrix(0.008463541666666668,0,0,0.008463541666666668,36.325520833333336,0)" xlink:href="#Z"/><use transform="matrix(0.008463541666666668,0,0,0.008463541666666668,46.56640625,0)" xlink:href="#W"/><use transform="matrix(0.008463541666666668,0,0,0.008463541666666668,50.764322916666664,0)" xlink:href="#aa"/><use transform="matrix(0.008463541666666668,0,0,0.008463541666666668,56.43489583333333,0)" xlink:href="#W"/><use transform="matrix(0.008463541666666668,0,0,0.008463541666666668,60.63281249999999,0)" xlink:href="#al"/><use transform="matrix(0.008463541666666668,0,0,0.008463541666666668,71.02604166666666,0)" xlink:href="#Z"/></g><path d="M128 359l88-567h206L266 359H128" id="aE"/><use transform="matrix(0.008463541666666668,0,0,0.008463541666666668,0,0)" xlink:href="#aE" id="s"/><path d="M180 0v-1490h190v1322h690V0H180" id="aF"/><g id="t"><use transform="matrix(0.008463541666666668,0,0,0.008463541666666668,0,0)" xlink:href="#R"/><use transform="matrix(0.008463541666666668,0,0,0.008463541666666668,4.993489583333334,0)" xlink:href="#ao"/><use transform="matrix(0.008463541666666668,0,0,0.008463541666666668,15.606770833333336,0)" xlink:href="#X"/><use transform="matrix(0.008463541666666668,0,0,0.008463541666666668,21.84440104166667,0)" xlink:href="#T"/><use transform="matrix(0.008463541666666668,0,0,0.008463541666666668,31.94986979166667,0)" xlink:href="#aq"/><use transform="matrix(0.008463541666666668,0,0,0.008463541666666668,38.36523437500001,0)" xlink:href="#aF"/><use transform="matrix(0.008463541666666668,0,0,0.008463541666666668,48.16601562500001,0)" xlink:href="#ah"/><use transform="matrix(0.008463541666666668,0,0,0.008463541666666668,57.89908854166667,0)" xlink:href="#az"/><use transform="matrix(0.008463541666666668,0,0,0.008463541666666668,68.51236979166667,0)" xlink:href="#T"/><use transform="matrix(0.008463541666666668,0,0,0.008463541666666668,78.61783854166667,0)" xlink:href="#aA"/></g><path d="M783 20c-382 0-661-292-661-764 0-473 279-766 661-766 302 0 548 182 601 489h-190c-42-204-217-313-411-313-268 0-476 208-476 590 0 381 209 588 476 588 195 0 369-110 411-313h190c-52 303-296 489-601 489" id="aG"/><g id="u"><use transform="matrix(0.008463541666666668,0,0,0.008463541666666668,0,0)" xlink:href="#ai"/><use transform="matrix(0.008463541666666668,0,0,0.008463541666666668,9.149088541666668,0)" xlink:href="#aj"/><use transform="matrix(0.008463541666666668,0,0,0.008463541666666668,19.3984375,0)" xlink:href="#R"/><use transform="matrix(0.008463541666666668,0,0,0.008463541666666668,24.391927083333336,0)" xlink:href="#aa"/><use transform="matrix(0.008463541666666668,0,0,0.008463541666666668,30.14713541666667,0)" xlink:href="#ah"/><use transform="matrix(0.008463541666666668,0,0,0.008463541666666668,39.88020833333335,0)" xlink:href="#X"/><use transform="matrix(0.008463541666666668,0,0,0.008463541666666668,46.11783854166668,0)" xlink:href="#au"/><use transform="matrix(0.008463541666666668,0,0,0.008463541666666668,56.748046875000014,0)" xlink:href="#T"/><use transform="matrix(0.008463541666666668,0,0,0.008463541666666668,66.85351562500001,0)" xlink:href="#aa"/><use transform="matrix(0.008463541666666668,0,0,0.008463541666666668,72.52408854166669,0)" xlink:href="#aG"/><use transform="matrix(0.008463541666666668,0,0,0.008463541666666668,85.18554687500003,0)" xlink:href="#aA"/><use transform="matrix(0.008463541666666668,0,0,0.008463541666666668,89.3834635416667,0)" xlink:href="#ah"/><use transform="matrix(0.008463541666666668,0,0,0.008463541666666668,99.11653645833337,0)" xlink:href="#ai"/><use transform="matrix(0.008463541666666668,0,0,0.008463541666666668,108.26562500000004,0)" xlink:href="#ai"/></g><path d="M158 0v-1490h180v865h22l478-493h223L593-638 1096 0H865L456-523 338-412V0H158" id="aH"/><g id="v"><use transform="matrix(0.008463541666666668,0,0,0.008463541666666668,0,0)" xlink:href="#ai"/><use transform="matrix(0.008463541666666668,0,0,0.008463541666666668,9.149088541666668,0)" xlink:href="#aH"/><use transform="matrix(0.008463541666666668,0,0,0.008463541666666668,18.272786458333336,0)" xlink:href="#al"/><use transform="matrix(0.008463541666666668,0,0,0.008463541666666668,28.666015625000004,0)" xlink:href="#ai"/><use transform="matrix(0.008463541666666668,0,0,0.008463541666666668,37.81510416666667,0)" xlink:href="#R"/><use transform="matrix(0.008463541666666668,0,0,0.008463541666666668,42.80859375000001,0)" xlink:href="#aG"/><use transform="matrix(0.008463541666666668,0,0,0.008463541666666668,55.47005208333334,0)" xlink:href="#al"/><use transform="matrix(0.008463541666666668,0,0,0.008463541666666668,65.86328125000001,0)" xlink:href="#Z"/><use transform="matrix(0.008463541666666668,0,0,0.008463541666666668,76.10416666666669,0)" xlink:href="#ax"/><use transform="matrix(0.008463541666666668,0,0,0.008463541666666668,86.00651041666667,0)" xlink:href="#T"/><use transform="matrix(0.008463541666666668,0,0,0.008463541666666668,96.11197916666669,0)" xlink:href="#ao"/><use transform="matrix(0.008463541666666668,0,0,0.008463541666666668,106.72526041666669,0)" xlink:href="#aa"/><use transform="matrix(0.008463541666666668,0,0,0.008463541666666668,112.39583333333336,0)" xlink:href="#an"/><use transform="matrix(0.008463541666666668,0,0,0.008463541666666668,123.51692708333336,0)" xlink:href="#ax"/><use transform="matrix(0.008463541666666668,0,0,0.008463541666666668,133.41927083333337,0)" xlink:href="#aj"/><use transform="matrix(0.008463541666666668,0,0,0.008463541666666668,143.6686197916667,0)" xlink:href="#T"/><use transform="matrix(0.008463541666666668,0,0,0.008463541666666668,153.7740885416667,0)" xlink:href="#Y"/><use transform="matrix(0.008463541666666668,0,0,0.008463541666666668,168.9576822916667,0)" xlink:href="#T"/></g><g id="w"><use transform="matrix(0.008463541666666668,0,0,0.008463541666666668,0,0)" xlink:href="#ai"/><use transform="matrix(0.008463541666666668,0,0,0.008463541666666668,9.149088541666668,0)" xlink:href="#ax"/><use transform="matrix(0.008463541666666668,0,0,0.008463541666666668,19.05143229166667,0)" xlink:href="#aj"/><use transform="matrix(0.008463541666666668,0,0,0.008463541666666668,29.300781250000007,0)" xlink:href="#T"/><use transform="matrix(0.008463541666666668,0,0,0.008463541666666668,39.40625000000001,0)" xlink:href="#Y"/><use transform="matrix(0.008463541666666668,0,0,0.008463541666666668,54.58984375000001,0)" xlink:href="#ah"/><use transform="matrix(0.008463541666666668,0,0,0.008463541666666668,64.32291666666667,0)" xlink:href="#R"/><use transform="matrix(0.008463541666666668,0,0,0.008463541666666668,69.31640625,0)" xlink:href="#am"/><use transform="matrix(0.008463541666666668,0,0,0.008463541666666668,79.9296875,0)" xlink:href="#T"/><use transform="matrix(0.008463541666666668,0,0,0.008463541666666668,90.03515625,0)" xlink:href="#ai"/><use transform="matrix(0.008463541666666668,0,0,0.008463541666666668,99.18424479166667,0)" xlink:href="#ax"/><use transform="matrix(0.008463541666666668,0,0,0.008463541666666668,109.08658854166667,0)" xlink:href="#X"/><use transform="matrix(0.008463541666666668,0,0,0.008463541666666668,115.8828125,0)" xlink:href="#W"/><use transform="matrix(0.008463541666666668,0,0,0.008463541666666668,120.08072916666667,0)" xlink:href="#ao"/><use transform="matrix(0.008463541666666668,0,0,0.008463541666666668,130.69401041666669,0)" xlink:href="#aa"/><use transform="matrix(0.008463541666666668,0,0,0.008463541666666668,136.36458333333334,0)" xlink:href="#W"/><use transform="matrix(0.008463541666666668,0,0,0.008463541666666668,140.5625,0)" xlink:href="#al"/><use transform="matrix(0.008463541666666668,0,0,0.008463541666666668,150.95572916666666,0)" xlink:href="#Z"/></g><g id="x"><use transform="matrix(0.008463541666666668,0,0,0.008463541666666668,0,0)" xlink:href="#av"/><use transform="matrix(0.008463541666666668,0,0,0.008463541666666668,8.074218750000002,0)" xlink:href="#S"/><use transform="matrix(0.008463541666666668,0,0,0.008463541666666668,18.97526041666667,0)" xlink:href="#T"/><use transform="matrix(0.008463541666666668,0,0,0.008463541666666668,29.08072916666667,0)" xlink:href="#U"/><use transform="matrix(0.008463541666666668,0,0,0.008463541666666668,39.69401041666667,0)" xlink:href="#V"/><use transform="matrix(0.008463541666666668,0,0,0.008463541666666668,49.94335937500001,0)" xlink:href="#W"/><use transform="matrix(0.008463541666666668,0,0,0.008463541666666668,54.14127604166667,0)" xlink:href="#X"/><use transform="matrix(0.008463541666666668,0,0,0.008463541666666668,60.37890625000001,0)" xlink:href="#T"/><use transform="matrix(0.008463541666666668,0,0,0.008463541666666668,70.48437500000001,0)" xlink:href="#Y"/><use transform="matrix(0.008463541666666668,0,0,0.008463541666666668,85.66796875000001,0)" xlink:href="#T"/><use transform="matrix(0.008463541666666668,0,0,0.008463541666666668,95.77343750000001,0)" xlink:href="#Z"/><use transform="matrix(0.008463541666666668,0,0,0.008463541666666668,106.01432291666669,0)" xlink:href="#aa"/><use transform="matrix(0.008463541666666668,0,0,0.008463541666666668,111.68489583333336,0)" xlink:href="#ad"/><use transform="matrix(0.008463541666666668,0,0,0.008463541666666668,116.67838541666669,0)" xlink:href="#ad"/><use transform="matrix(0.008463541666666668,0,0,0.008463541666666668,121.67187500000001,0)" xlink:href="#ad"/><use transform="matrix(0.008463541666666668,0,0,0.008463541666666668,125.24348958333336,0)" xlink:href="#av"/></g><g id="y"><use transform="matrix(0.008463541666666668,0,0,0.008463541666666668,0,0)" xlink:href="#ai"/><use transform="matrix(0.008463541666666668,0,0,0.008463541666666668,9.149088541666668,0)" xlink:href="#ax"/><use transform="matrix(0.008463541666666668,0,0,0.008463541666666668,19.05143229166667,0)" xlink:href="#aj"/><use transform="matrix(0.008463541666666668,0,0,0.008463541666666668,29.300781250000007,0)" xlink:href="#T"/><use transform="matrix(0.008463541666666668,0,0,0.008463541666666668,39.40625000000001,0)" xlink:href="#Y"/><use transform="matrix(0.008463541666666668,0,0,0.008463541666666668,54.58984375000001,0)" xlink:href="#ah"/><use transform="matrix(0.008463541666666668,0,0,0.008463541666666668,64.32291666666667,0)" xlink:href="#R"/><use transform="matrix(0.008463541666666668,0,0,0.008463541666666668,69.31640625,0)" xlink:href="#Z"/><use transform="matrix(0.008463541666666668,0,0,0.008463541666666668,79.55729166666667,0)" xlink:href="#ah"/><use transform="matrix(0.008463541666666668,0,0,0.008463541666666668,89.29036458333334,0)" xlink:href="#Y"/><use transform="matrix(0.008463541666666668,0,0,0.008463541666666668,104.47395833333334,0)" xlink:href="#T"/></g><g id="z"><use transform="matrix(0.008463541666666668,0,0,0.008463541666666668,0,0)" xlink:href="#ac"/><use transform="matrix(0.008463541666666668,0,0,0.008463541666666668,10.570963541666668,0)" xlink:href="#ad"/><use transform="matrix(0.008463541666666668,0,0,0.008463541666666668,14.066406250000002,0)" xlink:href="#ae"/><use transform="matrix(0.008463541666666668,0,0,0.008463541666666668,21.116536458333336,0)" xlink:href="#ad"/><use transform="matrix(0.008463541666666668,0,0,0.008463541666666668,25.669921875,0)" xlink:href="#af"/><use transform="matrix(0.008463541666666668,0,0,0.008463541666666668,36.604817708333336,0)" xlink:href="#ag"/><use transform="matrix(0.008463541666666668,0,0,0.008463541666666668,47.802083333333336,0)" xlink:href="#av"/></g><use transform="matrix(0.008463541666666668,0,0,0.008463541666666668,0,0)" xlink:href="#ad" id="A"/><path d="M458 0L52-1490h194c108 439 233 855 324 1313 92-459 221-873 331-1313h216c110 438 234 854 330 1307 92-455 216-869 323-1307h196L1558 0h-221l-256-944c-26-95-50-200-73-331-22 122-44 223-73 331L680 0H458" id="aI"/><path d="M409 0L70-1118h191c89 329 165 560 243 925 75-353 154-601 240-925h192c85 325 161 564 235 922 77-354 157-598 244-922h191L1267 0h-179c-86-307-176-590-250-913C763-588 675-308 588 0H409" id="aJ"/><g id="B"><use transform="matrix(0.010850694444444444,0,0,0.010850694444444444,0,0)" xlink:href="#aI"/><use transform="matrix(0.010850694444444444,0,0,0.010850694444444444,21.89670138888889,0)" xlink:href="#W"/><use transform="matrix(0.010850694444444444,0,0,0.010850694444444444,27.278645833333336,0)" xlink:href="#Z"/><use transform="matrix(0.010850694444444444,0,0,0.010850694444444444,40.407986111111114,0)" xlink:href="#am"/><use transform="matrix(0.010850694444444444,0,0,0.010850694444444444,54.01475694444444,0)" xlink:href="#al"/><use transform="matrix(0.010850694444444444,0,0,0.010850694444444444,66.93793402777777,0)" xlink:href="#aJ"/></g><g id="C"><use transform="matrix(0.010850694444444444,0,0,0.010850694444444444,0,0)" xlink:href="#aD"/><use transform="matrix(0.010850694444444444,0,0,0.010850694444444444,14.344618055555555,0)" xlink:href="#W"/><use transform="matrix(0.010850694444444444,0,0,0.010850694444444444,19.7265625,0)" xlink:href="#aa"/><use transform="matrix(0.010850694444444444,0,0,0.010850694444444444,26.99652777777778,0)" xlink:href="#aA"/><use transform="matrix(0.010850694444444444,0,0,0.010850694444444444,32.37847222222222,0)" xlink:href="#T"/></g><path d="M784 20c-382 0-662-292-662-764 0-473 280-766 662-766s660 293 660 766c0 472-278 764-660 764zm0-176c266 0 475-207 475-588 0-383-209-590-475-590-268 0-477 208-477 590 0 380 209 588 477 588" id="aK"/><g id="D"><use transform="matrix(0.010850694444444444,0,0,0.010850694444444444,0,0)" xlink:href="#aK"/><use transform="matrix(0.010850694444444444,0,0,0.010850694444444444,16.9921875,0)" xlink:href="#ao"/><use transform="matrix(0.010850694444444444,0,0,0.010850694444444444,30.598958333333332,0)" xlink:href="#aa"/><use transform="matrix(0.010850694444444444,0,0,0.010850694444444444,37.86892361111111,0)" xlink:href="#W"/><use transform="matrix(0.010850694444444444,0,0,0.010850694444444444,43.25086805555555,0)" xlink:href="#al"/><use transform="matrix(0.010850694444444444,0,0,0.010850694444444444,56.57552083333333,0)" xlink:href="#Z"/></g><use transform="matrix(0.010850694444444444,0,0,0.010850694444444444,0,0)" xlink:href="#ae" id="E"/><g id="F"><use transform="matrix(0.010850694444444444,0,0,0.010850694444444444,0,0)" xlink:href="#as"/><use transform="matrix(0.010850694444444444,0,0,0.010850694444444444,14.539930555555555,0)" xlink:href="#V"/><use transform="matrix(0.010850694444444444,0,0,0.010850694444444444,27.68012152777778,0)" xlink:href="#aa"/><use transform="matrix(0.010850694444444444,0,0,0.010850694444444444,34.407552083333336,0)" xlink:href="#aa"/><use transform="matrix(0.010850694444444444,0,0,0.010850694444444444,41.46050347222223,0)" xlink:href="#al"/><use transform="matrix(0.010850694444444444,0,0,0.010850694444444444,54.78515625000001,0)" xlink:href="#Z"/></g><use transform="matrix(0.010850694444444444,0,0,0.010850694444444444,0,0)" xlink:href="#ac" id="G"/><path d="M635 20c-292 0-500-160-510-396h192c11 142 145 229 315 229 187 0 323-105 323-260 0-161-125-274-346-274H488v-165h121c174 0 294-100 294-254 0-148-104-245-266-245-152 0-291 85-297 230H157c8-234 222-395 484-395 278 0 448 188 448 400 0 168-95 291-247 336v12c190 31 301 169 301 357 0 244-216 425-508 425" id="aL"/><use transform="matrix(0.010850694444444444,0,0,0.010850694444444444,0,0)" xlink:href="#aL" id="H"/><g id="I"><use transform="matrix(0.010850694444444444,0,0,0.010850694444444444,0,0)" xlink:href="#aF"/><use transform="matrix(0.010850694444444444,0,0,0.010850694444444444,12.565104166666666,0)" xlink:href="#ah"/><use transform="matrix(0.010850694444444444,0,0,0.010850694444444444,25.04340277777778,0)" xlink:href="#az"/><use transform="matrix(0.010850694444444444,0,0,0.010850694444444444,38.650173611111114,0)" xlink:href="#T"/><use transform="matrix(0.010850694444444444,0,0,0.010850694444444444,51.60590277777778,0)" xlink:href="#aA"/><use transform="matrix(0.010850694444444444,0,0,0.010850694444444444,56.98784722222222,0)" xlink:href="#R"/></g><path d="M180 0v-1490h190c0 262 1 526-3 784 217-279 467-523 702-784h249L716-845 1319 0h-225L585-716 370-489V0H180" id="aM"/><g id="J"><use transform="matrix(0.01953125,0,0,0.01953125,0,0)" xlink:href="#aM"/><use transform="matrix(0.01953125,0,0,0.01953125,26.875,0)" xlink:href="#Z"/><use transform="matrix(0.01953125,0,0,0.01953125,50.5078125,0)" xlink:href="#al"/><use transform="matrix(0.01953125,0,0,0.01953125,73.76953125,0)" xlink:href="#aJ"/><use transform="matrix(0.01953125,0,0,0.01953125,106.50390625,0)" xlink:href="#aA"/><use transform="matrix(0.01953125,0,0,0.01953125,116.19140625,0)" xlink:href="#T"/><use transform="matrix(0.01953125,0,0,0.01953125,139.51171875,0)" xlink:href="#am"/><use transform="matrix(0.01953125,0,0,0.01953125,164.00390625,0)" xlink:href="#au"/><use transform="matrix(0.01953125,0,0,0.01953125,188.53515625,0)" xlink:href="#T"/></g><path d="M789 20c-398 0-667-293-667-764 0-473 273-766 655-766 315 0 558 198 612 487h-196c-61-191-204-311-415-311-262 0-471 207-471 590 0 380 208 588 482 588 249 0 420-165 425-427H828v-166h572v163c0 370-256 606-611 606" id="aN"/><g id="K"><use transform="matrix(0.01953125,0,0,0.01953125,0,0)" xlink:href="#aN"/><use transform="matrix(0.01953125,0,0,0.01953125,29.84375,0)" xlink:href="#X"/><use transform="matrix(0.01953125,0,0,0.01953125,44.90234375,0)" xlink:href="#ah"/><use transform="matrix(0.01953125,0,0,0.01953125,67.36328125,0)" xlink:href="#ao"/><use transform="matrix(0.01953125,0,0,0.01953125,91.85546875,0)" xlink:href="#aj"/></g><path fill="#333" d="M628 22C291 22 81-210 81-554c0-346 210-578 547-578 265 0 455 142 497 372l-279 52c-25-116-99-188-215-188-160 0-244 139-244 341 0 200 84 341 244 341 116 0 193-74 217-195l279 51C1085-123 896 22 628 22" id="aO"/><path fill="#333" d="M628 22C291 22 81-210 81-554c0-346 210-578 547-578 336 0 547 232 547 578 0 344-211 576-547 576zm0-236c160 0 242-146 242-341 0-197-82-341-242-341S387-753 387-555c0 195 81 341 241 341" id="aP"/><path fill="#333" d="M537 19C279 19 81-185 81-557c0-382 206-575 454-575 190 0 278 113 318 202h10v-560h300V0H868v-179h-15C812-89 719 19 537 19zm92-241c153 0 240-134 240-336 0-203-86-334-240-334-158 0-240 138-240 334 0 197 84 336 240 336" id="aQ"/><path fill="#333" d="M633 22C291 22 81-200 81-553c0-345 210-579 537-579 292 0 525 185 525 567v84H378c7 183 109 277 260 277 105 0 184-46 216-132l272 51C1071-99 893 22 633 22zM380-669h474c-15-146-94-237-233-237-143 0-229 99-241 237" id="aR"/><g id="L"><use transform="matrix(0.015190972222222222,0,0,0.015190972222222222,0,0)" xlink:href="#aO"/><use transform="matrix(0.015190972222222222,0,0,0.015190972222222222,18.30512152777778,0)" xlink:href="#aP"/><use transform="matrix(0.015190972222222222,0,0,0.015190972222222222,37.384982638888886,0)" xlink:href="#aQ"/><use transform="matrix(0.015190972222222222,0,0,0.015190972222222222,56.99652777777777,0)" xlink:href="#aR"/></g><path fill="#333" d="M683-1118v229H474v562c0 71 29 104 102 104 23 0 73-7 95-13l43 225C647 9 580 16 520 16 296 16 174-96 174-301v-588H20v-229h154v-266h300v266h209" id="aS"/><g id="M"><use transform="matrix(0.015190972222222222,0,0,0.015190972222222222,0,0)" xlink:href="#aS"/><use transform="matrix(0.015190972222222222,0,0,0.015190972222222222,11.089409722222221,0)" xlink:href="#aP"/></g><path fill="#333" d="M750 21c-371 0-615-218-615-544v-967h305v942c0 174 123 299 310 299s309-125 309-299v-942h306v967c0 326-247 544-615 544" id="aT"/><path fill="#333" d="M440-1490V0H135v-1490h305" id="aU"/><g id="N"><use transform="matrix(0.015190972222222222,0,0,0.015190972222222222,0,0)" xlink:href="#aT"/><use transform="matrix(0.015190972222222222,0,0,0.015190972222222222,22.77126736111111,0)" xlink:href="#aU"/></g><g id="O"><use transform="matrix(0.015190972222222222,0,0,0.015190972222222222,0,0)" xlink:href="#aT"/><use transform="matrix(0.015190972222222222,0,0,0.015190972222222222,22.77126736111111,0)" xlink:href="#aU"/></g><path fill="#333" d="M128 0v-1118h300V0H128zm150-1264c-91 0-165-68-165-154 0-85 74-154 165-154 90 0 165 69 165 154 0 86-75 154-165 154" id="aV"/><path fill="#333" d="M428-647V0H128v-1118h283l4 231c63-156 176-245 348-245 232 0 384 159 384 421V0H847v-659c0-139-76-222-202-222-128 0-217 86-217 234" id="aW"/><g id="P"><use transform="matrix(0.015190972222222222,0,0,0.015190972222222222,0,0)" xlink:href="#aV"/><use transform="matrix(0.015190972222222222,0,0,0.015190972222222222,8.430989583333334,0)" xlink:href="#aW"/><use transform="matrix(0.015190972222222222,0,0,0.015190972222222222,27.799479166666664,0)" xlink:href="#aS"/><use transform="matrix(0.015190972222222222,0,0,0.015190972222222222,38.888888888888886,0)" xlink:href="#aP"/></g><path fill="#333" d="M659 0H135v-1490h529c448 0 721 280 721 744 0 466-273 746-726 746zM440-263h204c287 0 437-148 437-483 0-333-150-481-435-481H440v964" id="aX"/><path fill="#333" d="M135 0v-1490h591c327 0 492 160 492 383 0 177-115 286-268 320v15c168 8 326 140 326 361 0 236-176 411-512 411H135zm305-251h264c179 0 258-76 258-189 0-125-97-215-250-215H440v404zm0-613h241c131 0 228-74 228-194 0-109-79-183-222-183H440v377" id="aY"/><g id="Q"><use transform="matrix(0.015190972222222222,0,0,0.015190972222222222,0,0)" xlink:href="#aX"/><use transform="matrix(0.015190972222222222,0,0,0.015190972222222222,22.467447916666668,0)" xlink:href="#aY"/></g></defs></g></svg>