<svg xmlns="http://www.w3.org/2000/svg" xmlns:xlink="http://www.w3.org/1999/xlink" xmlns:lucid="lucid" width="987.17" height="367.17"><g transform="translate(-281.5000000000001 -376.00000000000017)" lucid:page-tab-id="xs2SSstKXg8m"><path d="M0 0h1870.87v1322.84H0z" fill="#fff"/><path d="M1242.67 720.8c0 12.08-194.3 21.87-434 21.87s-434-9.8-434-21.87V545.87c0-12.08 194.3-21.87 434-21.87s434 9.8 434 21.87z" fill="#f2f2ff"/><path d="M1234.06 725.14l-1.1.28-4.7 1-4.03.66m-4.95.82l-9.95 1.22m-4.97.6l-4.34.54-5.64.45m-5 .4l-10 .8m-5 .4l-9.98.8m-5 .4l-10 .8m-5 .3l-10 .37m-5.02.2l-10.02.37m-5 .2l-10.03.36m-5 .2l-10.03.37m-5 .2l-10.03.37m-5 .18l-10.03.38m-5 .2l-10.02.37m-5 .18l-10.03.38m-5.02.2l-10.02.37m-5 .18l-10.03.38m-5 .2l-10.03.37m-5 .2l-6.12.2-3.9.05m-5.02.05l-10.02.1m-5.02.05l-10.02.1m-5.02.05l-10.02.1m-5 .05l-10.04.1m-5 .05l-10.04.1m-5 .04l-10.03.1m-5.02.05l-10.02.1m-5 .05l-10.03.1m-5 .05l-10.04.1m-5 .05l-10.04.1m-5.02.05l-5 .05h-.02l-5-.1m-5.02-.1l-10.02-.17m-5-.1l-10.04-.17m-5-.1l-10.03-.17m-5.02-.1l-10.02-.18m-5-.1l-10.03-.17m-5-.08l-10.03-.2m-5-.08l-10.04-.18m-5-.1l-10.03-.17m-5.02-.1l-10.02-.2m-5-.08l-10.04-.18m-5.02-.1l-10.02-.17m-5-.1l-10.04-.18m-5-.1l-10.03-.18m-5.03-.1l-10.02-.18m-5-.1l-10.04-.17m-5-.1l-10.02-.17m-5-.1l-10.04-.18m-5-.1l-10.03-.17m-5-.23l-10-.58m-5-.3l-10.02-.58m-5-.3l-10.02-.6m-5-.28l-10-.6m-5-.28l-10.02-.6m-5-.28l-10-.6m-5.02-.3l-1.67-.1-8.3-.83m-5-.52l-9.97-1m-5-.52l-2.6-.26-7.32-1.07m-4.96-.72l-.43-.05-6.3-1.2-3.1-.7m-4.8-1.45l-.3-.1-.73-.3-.54-.27-.4-.2-.32-.2-.26-.15-.2-.14-.17-.13-.14-.1-.1-.1-.1-.1-.08-.1-.07-.07-.06-.08-.06-.07-.05-.07-.05-.05-.03-.06-.03-.07-.03-.06-.03-.05v-.06l-.03-.05v-.08l-.02-.05v-5.03m0-4.86v-9.72m0-4.86v-9.72m0-4.85v-9.72m0-4.85v-9.72m0-4.86v-9.72m0-4.86v-9.73m0-4.86v-9.7m0-4.86v-9.72m0-4.86v-9.72m0-4.86v-9.72m0-4.86v-9.7m0-4.87v-5.1l.02-.05.02-.05v-.05l.03-.06.03-.05.03-.06.04-.05.03-.06.04-.08.06-.07.06-.07.06-.08.08-.08.1-.1.1-.1.12-.1.15-.12.2-.14.22-.15.28-.16.36-.2.46-.23.62-.26.7-.28m4.8-1.43l1.1-.28 4.7-1 4.02-.66m4.95-.83l9.95-1.22m4.98-.6l4.33-.55 5.65-.45m5-.4l10-.8m5-.4l9.98-.8m5-.4l10-.8m5-.28l10.02-.38m5-.2l10.03-.37m5-.2l10.02-.37m5-.2l10.03-.36m5-.2l10.03-.37m5-.2l10.03-.36m5-.2l10.02-.37m5-.2l10.02-.36m5-.2l10.03-.37m5-.2l10.03-.37m5-.18l10.03-.38m5-.2l6.12-.22 3.9-.04m5.02-.05l10.03-.1m5-.04l10.04-.1m5-.06l10.03-.1m5.02-.05l10-.1m5.02-.06l10.03-.1m5-.05l10.04-.1m5-.06l10.03-.1m5-.04l10.04-.1m5-.05l10.03-.1m5.02-.05l10.02-.1m5-.05l5.03-.05 5 .1m5.02.08l10 .2m5.03.08l10.02.18m5 .1l10.04.17m5 .1l10.02.2m5 .08l10.04.18m5 .1l10.03.17m5 .1l10.03.18m5 .1l10.04.18m5 .1l10.03.17m5 .1l10.04.18m5 .1l10.04.17m5 .1l10.03.17m5.02.1l10.03.18m5 .1l10.03.17m5.02.1l10.02.18m5 .1l10.04.17m5 .1l10.03.17m5 .1l10.03.18m5 .22l10 .6m5.02.28l10 .6m5 .3l10.02.57m5 .3l10 .58m5.02.3l10 .58m5 .3l10 .58m5 .3l1.7.1 8.3.84m4.98.5l9.97 1.02m5 .5l2.6.27 7.33 1.06m4.96.72l.42.06 6.32 1.2 3.08.72m4.8 1.44l.3.12.73.3.53.25.4.22.33.18.25.16.2.13.18.13.14.1.1.12.1.1.1.08.06.08.06.08.06.07.04.05.04.07.03.06.04.06.03.05.02.05v.05l.02.05.02.05v.1l.02.05v4.98m0 4.86v9.7m0 4.86v9.72m0 4.86v9.72m0 4.86v9.72m0 4.86v9.72m0 4.85v9.72m0 4.85v9.72m0 4.86v9.72m0 4.86v9.73m0 4.86v9.7m0 4.86v9.72m0 4.86v5.04l-.02.04v.05l-.03.04v.05l-.02.04-.02.06-.03.06-.03.06-.04.06-.04.06-.05.08-.05.07-.07.07-.08.08-.1.1-.1.1-.12.1-.15.12-.18.13-.23.16-.3.17-.36.2-.47.23-.62.27-.7.28" stroke="#3a414a" fill="none"/><path d="M1242.67 545.87c0 12.07-194.3 21.86-434 21.86s-434-9.8-434-21.86" fill="none"/><path d="M1242.67 545.87V546.02l-.02.06v.05l-.02.06-.02.05v.06l-.02.05-.02.07-.03.05-.03.06-.04.07-.04.06-.05.08-.05.08-.07.07-.08.1-.1.08-.1.1-.12.12-.15.12-.18.13-.23.15-.3.17-.36.2-.47.22-.62.28-.7.27m-4.8 1.44l-1.1.3-4.7.98-4.02.66m-4.95.82l-9.95 1.23m-4.97.6l-4.34.53-5.64.45m-5 .4l-10 .8m-5 .4l-9.98.8m-5 .4l-10 .8m-5 .28l-10 .38m-5.02.2l-10.02.37m-5 .2l-10.03.37m-5 .2l-10.03.37m-5 .18l-10.03.38m-5 .2l-10.03.37m-5 .18l-10.02.38m-5 .2l-10.03.37m-5.02.2l-10.02.36m-5 .2l-10.03.37m-5 .2l-10.03.36m-5 .18l-6.12.23-3.9.05m-5.02.05l-10.02.1m-5.02.05l-10.02.1m-5.02.05l-10.02.1m-5 .04l-10.04.1m-5 .05l-10.04.1m-5 .04l-10.03.1m-5.02.05l-10.02.1m-5 .04l-10.03.1m-5 .05l-10.04.1m-5 .03l-10.04.1m-5.02.05l-5 .05h-.02l-5-.1m-5.02-.08l-10.02-.18m-5-.1l-10.04-.17m-5-.1l-10.03-.18m-5.02-.1l-10.02-.17m-5-.1l-10.03-.18m-5-.1l-10.03-.17m-5-.1l-10.04-.17m-5-.1l-10.03-.18m-5.02-.1l-10.02-.17m-5-.1l-10.04-.17m-5.02-.1l-10.02-.17m-5-.1l-10.04-.17m-5-.1l-10.03-.17m-5.03-.1l-10.02-.2m-5-.08l-10.04-.18m-5-.1l-10.02-.18m-5-.1l-10.04-.17m-5-.1l-10.03-.18m-5-.23l-10-.6m-5-.3l-10.02-.58m-5-.3l-10.02-.58m-5-.3l-10-.58m-5-.3l-10.02-.6m-5-.28l-10-.6m-5.02-.28l-1.67-.1-8.3-.84m-5-.5l-9.97-1.02m-5-.5l-2.6-.28-7.32-1.06m-4.96-.72l-.43-.06-6.3-1.2-3.1-.7m-4.8-1.45l-.3-.12-.73-.3-.54-.25-.4-.2-.32-.2-.26-.16-.2-.14-.17-.13-.14-.1-.1-.1-.1-.1-.08-.1-.07-.08-.06-.08-.06-.07-.05-.07-.05-.07-.03-.05-.03-.06-.03-.06-.03-.06v-.05l-.03-.05v-.1l-.02-.05V545.85" stroke="#3a414a" fill="none"/><use xlink:href="#a" transform="matrix(1,0,0,1,379.6666666666667,572.7333333333333) translate(386.4124074074074 158.92062577777776)"/><use xlink:href="#b" transform="matrix(1,0,0,1,379.6666666666667,572.7333333333333) translate(454.9309259259259 158.92062577777776)"/><path d="M565.33 692.08c0 6.63-26.86 12-60 12-33.13 0-60-5.37-60-12v-96c0-6.62 26.87-12 60-12 33.14 0 60 5.38 60 12z" stroke="#3a414a" fill="#dedeff"/><path d="M565.33 596.08c0 6.63-26.86 12-60 12-33.13 0-60-5.37-60-12" stroke="#3a414a" fill="none"/><use xlink:href="#c" transform="matrix(1,0,0,1,450.33333333337214,613.0839895013123) translate(32.22222222222222 33.90277777777778)"/><use xlink:href="#b" transform="matrix(1,0,0,1,450.33333333337214,613.0839895013123) translate(24.16666666666667 60.56944444444445)"/><path d="M762.67 692.08c0 6.63-26.87 12-60 12-33.14 0-60-5.37-60-12v-96c0-6.62 26.86-12 60-12 33.13 0 60 5.38 60 12z" stroke="#3a414a" fill="#dedeff"/><path d="M762.67 596.08c0 6.63-26.87 12-60 12-33.14 0-60-5.37-60-12" stroke="#3a414a" fill="none"/><use xlink:href="#c" transform="matrix(1,0,0,1,647.6666666666667,613.0839895013123) translate(32.22222222222222 33.90277777777778)"/><use xlink:href="#b" transform="matrix(1,0,0,1,647.6666666666667,613.0839895013123) translate(24.16666666666667 60.56944444444445)"/><path d="M960 692.08c0 6.63-26.86 12-60 12s-60-5.37-60-12v-96c0-6.62 26.86-12 60-12s60 5.38 60 12z" stroke="#3a414a" fill="#dedeff"/><path d="M960 596.08c0 6.63-26.86 12-60 12s-60-5.37-60-12" stroke="#3a414a" fill="none"/><use xlink:href="#c" transform="matrix(1,0,0,1,844.9999999999613,613.0839895013123) translate(32.22222222222222 33.90277777777778)"/><use xlink:href="#b" transform="matrix(1,0,0,1,844.9999999999613,613.0839895013123) translate(24.16666666666667 60.56944444444445)"/><path d="M1157.33 692.08c0 6.63-26.86 12-60 12-33.13 0-60-5.37-60-12v-96c0-6.62 26.87-12 60-12 33.14 0 60 5.38 60 12z" stroke="#3a414a" fill="#dedeff"/><path d="M1157.33 596.08c0 6.63-26.86 12-60 12-33.13 0-60-5.37-60-12" stroke="#3a414a" fill="none"/><use xlink:href="#c" transform="matrix(1,0,0,1,1042.333333333256,613.0839895013123) translate(32.22222222222222 33.90277777777778)"/><use xlink:href="#b" transform="matrix(1,0,0,1,1042.333333333256,613.0839895013123) translate(24.16666666666667 60.56944444444445)"/><path d="M1113.67 438.75a6 6 0 0 1 6 6v93.13a6 6 0 0 0 6 6H1136a2.3 2.3 0 0 1 1.54 4.02l-35.75 32.17a6.67 6.67 0 0 1-8.93 0l-35.74-32.17a2.3 2.3 0 0 1 1.54-4.02H1069a6 6 0 0 0 6-6v-93.13a6 6 0 0 1 6-6z" stroke="#3a414a" fill="#fff"/><use xlink:href="#d" transform="matrix(6.123233995736766e-17,1,-1,6.123233995736766e-17,1136.9999999999225,443.75065616797906) translate(33.870370370370374 45.27777777777778)"/><path d="M916.33 438.75a6 6 0 0 1 6 6v93.13a6 6 0 0 0 6 6h10.34a2.3 2.3 0 0 1 1.54 4.02l-35.74 32.17a6.67 6.67 0 0 1-8.92 0L859.8 547.9a2.3 2.3 0 0 1 1.53-4.02h10.34a6 6 0 0 0 6-6v-93.13a6 6 0 0 1 6-6z" stroke="#3a414a" fill="#fff"/><use xlink:href="#d" transform="matrix(6.123233995736766e-17,1,-1,6.123233995736766e-17,939.6666666666281,443.7506561679789) translate(33.870370370370374 45.27777777777778)"/><path d="M719 438.75a6 6 0 0 1 6 6v93.13a6 6 0 0 0 6 6h10.33a2.3 2.3 0 0 1 1.54 4.02l-35.74 32.17a6.67 6.67 0 0 1-8.92 0l-35.74-32.17a2.3 2.3 0 0 1 1.54-4.02h10.33a6 6 0 0 0 6-6v-93.13a6 6 0 0 1 6-6z" stroke="#3a414a" fill="#fff"/><use xlink:href="#d" transform="matrix(6.123233995736766e-17,1,-1,6.123233995736766e-17,742.3333333333333,443.75065616797906) translate(33.870370370370374 45.27777777777778)"/><path d="M521.67 438.75a6 6 0 0 1 6 6v93.13a6 6 0 0 0 6 6H544a2.3 2.3 0 0 1 1.54 4.02l-35.75 32.17a6.67 6.67 0 0 1-8.93 0l-35.74-32.17a2.3 2.3 0 0 1 1.54-4.02H477a6 6 0 0 0 6-6v-93.13a6 6 0 0 1 6-6z" stroke="#3a414a" fill="#fff"/><use xlink:href="#d" transform="matrix(-1.8369701987210297e-16,1,-1,-1.8369701987210297e-16,545.0000000000389,443.75065616797895) translate(33.870370370370374 45.27777777777778)"/><path d="M282 404.33a6 6 0 0 1 6-6h934.47a6 6 0 0 0 6-6V382a2.3 2.3 0 0 1 4-1.54l32.18 35.75a6.67 6.67 0 0 1 0 8.93l-32.17 35.74a2.3 2.3 0 0 1-4-1.54V449a6 6 0 0 0-6-6H288a6 6 0 0 1-6-6z" stroke="#3a414a" fill="#fff"/><use xlink:href="#e" transform="matrix(1,0,0,1,287.0000000000001,381.00000000000017) translate(421.74691358024694 45.27777777777778)"/><use xlink:href="#f" transform="matrix(1,0,0,1,287.0000000000001,381.00000000000017) translate(474.77160493827165 45.27777777777778)"/><path d="M484.06 419.33a6 6 0 0 1 6-6h30.7a6 6 0 0 1 6 6v40a6 6 0 0 1-6 6h-30.7a6 6 0 0 1-6-6zM681.32 444.75a6 6 0 0 1 6-6h30.7a6 6 0 0 1 6 6v4.4a6 6 0 0 1-6 6h-30.7a6 6 0 0 1-6-6zM878.65 432.18a6 6 0 0 1 6-6h30.7a6 6 0 0 1 6 6v40a6 6 0 0 1-6 6h-30.7a6 6 0 0 1-6-6zM1075.98 432.18a6 6 0 0 1 6-6h30.7a6 6 0 0 1 6 6v40a6 6 0 0 1-6 6h-30.7a6 6 0 0 1-6-6z" stroke="#fff" fill="#fff"/><defs><path fill="#3a414a" d="M137 0h-34L2-248h35l83 218 83-218h36" id="g"/><path fill="#3a414a" d="M24-231v-30h32v30H24zM24 0v-190h32V0H24" id="h"/><path fill="#3a414a" d="M114-163C36-179 61-72 57 0H25l-1-190h30c1 12-1 29 2 39 6-27 23-49 58-41v29" id="i"/><path fill="#3a414a" d="M59-47c-2 24 18 29 38 22v24C64 9 27 4 27-40v-127H5v-23h24l9-43h21v43h35v23H59v120" id="j"/><path fill="#3a414a" d="M84 4C-5 8 30-112 23-190h32v120c0 31 7 50 39 49 72-2 45-101 50-169h31l1 190h-30c-1-10 1-25-2-33-11 22-28 36-60 37" id="k"/><path fill="#3a414a" d="M141-36C126-15 110 5 73 4 37 3 15-17 15-53c-1-64 63-63 125-63 3-35-9-54-41-54-24 1-41 7-42 31l-33-3c5-37 33-52 76-52 45 0 72 20 72 64v82c-1 20 7 32 28 27v20c-31 9-61-2-59-35zM48-53c0 20 12 33 32 33 41-3 63-29 60-74-43 2-92-5-92 41" id="l"/><path fill="#3a414a" d="M24 0v-261h32V0H24" id="m"/><g id="a"><use transform="matrix(0.06172839506172839,0,0,0.06172839506172839,0,0)" xlink:href="#g"/><use transform="matrix(0.06172839506172839,0,0,0.06172839506172839,14.382716049382715,0)" xlink:href="#h"/><use transform="matrix(0.06172839506172839,0,0,0.06172839506172839,19.25925925925926,0)" xlink:href="#i"/><use transform="matrix(0.06172839506172839,0,0,0.06172839506172839,26.604938271604937,0)" xlink:href="#j"/><use transform="matrix(0.06172839506172839,0,0,0.06172839506172839,32.77777777777778,0)" xlink:href="#k"/><use transform="matrix(0.06172839506172839,0,0,0.06172839506172839,45.123456790123456,0)" xlink:href="#l"/><use transform="matrix(0.06172839506172839,0,0,0.06172839506172839,57.46913580246913,0)" xlink:href="#m"/></g><path fill="#3a414a" d="M143 4C61 4 22-44 18-125c-5-107 100-154 193-111 17 8 29 25 37 43l-32 9c-13-25-37-40-76-40-61 0-88 39-88 99 0 61 29 100 91 101 35 0 62-11 79-27v-45h-74v-28h105v86C228-13 192 4 143 4" id="n"/><path fill="#3a414a" d="M115-194c55 1 70 41 70 98S169 2 115 4C84 4 66-9 55-30l1 105H24l-1-265h31l2 30c10-21 28-34 59-34zm-8 174c40 0 45-34 45-75s-6-73-45-74c-42 0-51 32-51 76 0 43 10 73 51 73" id="o"/><path fill="#3a414a" d="M106-169C34-169 62-67 57 0H25v-261h32l-1 103c12-21 28-36 61-36 89 0 53 116 60 194h-32v-121c2-32-8-49-39-48" id="p"/><g id="b"><use transform="matrix(0.06172839506172839,0,0,0.06172839506172839,0,0)" xlink:href="#n"/><use transform="matrix(0.06172839506172839,0,0,0.06172839506172839,17.28395061728395,0)" xlink:href="#i"/><use transform="matrix(0.06172839506172839,0,0,0.06172839506172839,24.629629629629626,0)" xlink:href="#l"/><use transform="matrix(0.06172839506172839,0,0,0.06172839506172839,36.9753086419753,0)" xlink:href="#o"/><use transform="matrix(0.06172839506172839,0,0,0.06172839506172839,49.32098765432098,0)" xlink:href="#p"/></g><path fill="#3a414a" d="M233-177c-1 41-23 64-60 70L243 0h-38l-65-103H63V0H30v-248c88 3 205-21 203 71zM63-129c60-2 137 13 137-47 0-61-80-42-137-45v92" id="q"/><path fill="#3a414a" d="M100-194c63 0 86 42 84 106H49c0 40 14 67 53 68 26 1 43-12 49-29l28 8c-11 28-37 45-77 45C44 4 14-33 15-96c1-61 26-98 85-98zm52 81c6-60-76-77-97-28-3 7-6 17-6 28h103" id="r"/><g id="c"><use transform="matrix(0.06172839506172839,0,0,0.06172839506172839,0,0)" xlink:href="#q"/><use transform="matrix(0.06172839506172839,0,0,0.06172839506172839,15.987654320987653,0)" xlink:href="#r"/><use transform="matrix(0.06172839506172839,0,0,0.06172839506172839,28.333333333333332,0)" xlink:href="#l"/><use transform="matrix(0.06172839506172839,0,0,0.06172839506172839,40.67901234567901,0)" xlink:href="#m"/></g><path fill="#3a414a" d="M96-169c-40 0-48 33-48 73s9 75 48 75c24 0 41-14 43-38l32 2c-6 37-31 61-74 61-59 0-76-41-82-99-10-93 101-131 147-64 4 7 5 14 7 22l-32 3c-4-21-16-35-41-35" id="s"/><path fill="#3a414a" d="M117-194c89-4 53 116 60 194h-32v-121c0-31-8-49-39-48C34-167 62-67 57 0H25l-1-190h30c1 10-1 24 2 32 11-22 29-35 61-36" id="t"/><path fill="#3a414a" d="M143 0L79-87 56-68V0H24v-261h32v163l83-92h37l-77 82L181 0h-38" id="u"/><g id="d"><use transform="matrix(0.06172839506172839,0,0,0.06172839506172839,0,0)" xlink:href="#s"/><use transform="matrix(0.06172839506172839,0,0,0.06172839506172839,11.11111111111111,0)" xlink:href="#p"/><use transform="matrix(0.06172839506172839,0,0,0.06172839506172839,23.45679012345679,0)" xlink:href="#k"/><use transform="matrix(0.06172839506172839,0,0,0.06172839506172839,35.80246913580247,0)" xlink:href="#t"/><use transform="matrix(0.06172839506172839,0,0,0.06172839506172839,48.148148148148145,0)" xlink:href="#u"/></g><path fill="#3a414a" d="M30-248c118-7 216 8 213 122C240-48 200 0 122 0H30v-248zM63-27c89 8 146-16 146-99s-60-101-146-95v194" id="v"/><g id="e"><use transform="matrix(0.06172839506172839,0,0,0.06172839506172839,0,0)" xlink:href="#v"/><use transform="matrix(0.06172839506172839,0,0,0.06172839506172839,15.987654320987653,0)" xlink:href="#l"/><use transform="matrix(0.06172839506172839,0,0,0.06172839506172839,28.333333333333332,0)" xlink:href="#j"/><use transform="matrix(0.06172839506172839,0,0,0.06172839506172839,34.50617283950617,0)" xlink:href="#l"/></g><path fill="#3a414a" d="M185-189c-5-48-123-54-124 2 14 75 158 14 163 119 3 78-121 87-175 55-17-10-28-26-33-46l33-7c5 56 141 63 141-1 0-78-155-14-162-118-5-82 145-84 179-34 5 7 8 16 11 25" id="w"/><path fill="#3a414a" d="M210-169c-67 3-38 105-44 169h-31v-121c0-29-5-50-35-48C34-165 62-65 56 0H25l-1-190h30c1 10-1 24 2 32 10-44 99-50 107 0 11-21 27-35 58-36 85-2 47 119 55 194h-31v-121c0-29-5-49-35-48" id="x"/><g id="f"><use transform="matrix(0.06172839506172839,0,0,0.06172839506172839,0,0)" xlink:href="#w"/><use transform="matrix(0.06172839506172839,0,0,0.06172839506172839,14.814814814814813,0)" xlink:href="#j"/><use transform="matrix(0.06172839506172839,0,0,0.06172839506172839,20.98765432098765,0)" xlink:href="#i"/><use transform="matrix(0.06172839506172839,0,0,0.06172839506172839,28.33333333333333,0)" xlink:href="#r"/><use transform="matrix(0.06172839506172839,0,0,0.06172839506172839,40.679012345679006,0)" xlink:href="#l"/><use transform="matrix(0.06172839506172839,0,0,0.06172839506172839,53.02469135802468,0)" xlink:href="#x"/></g></defs></g></svg>