<svg xmlns="http://www.w3.org/2000/svg" xmlns:xlink="http://www.w3.org/1999/xlink" xmlns:lucid="lucid" width="750" height="594.11"><g transform="translate(-270.3333333333334 -198.94628906249986)" lucid:page-tab-id="_qP5LgUIn-Ds"><path d="M0 0h1500v1000H0z" fill="#fff"/><path d="M1019.33 777.9c0 7.82-167.44 14.15-374 14.15-206.55 0-374-6.33-374-14.14V664.77c0-7.8 167.45-14.15 374-14.15 206.56 0 374 6.35 374 14.16z" stroke="#000" stroke-width="2" fill="#fff"/><path d="M1019.33 664.76c0 7.8-167.44 14.14-374 14.14-206.55 0-374-6.33-374-14.14" stroke="#000" stroke-width="2" fill="none"/><use xlink:href="#a" transform="matrix(1,0,0,1,276.3333333333334,683.9011067708334) translate(189.85286458333331 62.63888888888889)"/><use xlink:href="#b" transform="matrix(1,0,0,1,276.3333333333334,683.9011067708334) translate(348.67447916666663 62.63888888888889)"/><use xlink:href="#c" transform="matrix(1,0,0,1,276.3333333333334,683.9011067708334) translate(425.1458333333333 62.63888888888889)"/><path d="M512.67 463.24c0 7.8-36.72 14.15-82 14.15-45.3 0-82-6.34-82-14.16V350.1c0-7.82 36.7-14.15 82-14.15 45.28 0 82 6.33 82 14.14z" stroke="#000" stroke-width="2" fill="#fff"/><path d="M512.67 350.1c0 7.8-36.72 14.13-82 14.13-45.3 0-82-6.33-82-14.14" stroke="#000" stroke-width="2" fill="none"/><use xlink:href="#d" transform="matrix(1,0,0,1,353.66666666666686,369.2344401041667) translate(20.770616319444443 62.63888888888889)"/><path d="M736.67 416.58c0 7.8-36.72 14.14-82 14.14-45.3 0-82-6.33-82-14.14V303.42c0-7.8 36.7-14.14 82-14.14 45.28 0 82 6.33 82 14.14z" stroke="#000" stroke-width="2" fill="#fff"/><path d="M736.67 303.42c0 7.8-36.72 14.15-82 14.15-45.3 0-82-6.33-82-14.15" stroke="#000" stroke-width="2" fill="none"/><use xlink:href="#d" transform="matrix(1,0,0,1,577.6666666666667,322.5677734374999) translate(20.770616319444443 62.63888888888889)"/><path d="M950 563.24c0 7.8-36.7 14.15-82 14.15s-82-6.35-82-14.16V450.1c0-7.82 36.7-14.15 82-14.15s82 6.33 82 14.14z" stroke="#000" stroke-width="2" fill="#fff"/><path d="M950 450.1c0 7.8-36.7 14.13-82 14.13s-82-6.33-82-14.14" stroke="#000" stroke-width="2" fill="none"/><use xlink:href="#d" transform="matrix(1,0,0,1,791.0000000000002,469.2344401041666) translate(20.770616319444443 62.63888888888889)"/><path d="M950 327.24c0 7.8-36.7 14.15-82 14.15s-82-6.34-82-14.16V214.1c0-7.82 36.7-14.15 82-14.15s82 6.33 82 14.14z" stroke="#000" stroke-width="2" fill="#fff"/><path d="M950 214.1c0 7.8-36.7 14.13-82 14.13s-82-6.33-82-14.14" stroke="#000" stroke-width="2" fill="none"/><use xlink:href="#d" transform="matrix(1,0,0,1,791.0000000000001,233.23444010416654) translate(20.770616319444443 62.63888888888889)"/><path d="M430.66 478.9l-.08 3.76-.26 4.1-.42 4-.57 3.86-.72 3.8-.87 3.74-1.04 3.7-1.22 3.73-1.4 3.75-1.6 3.82-1.85 3.93-2.15 4.1-2.52 4.36-3 4.73-3.7 5.32-4.9 6.42-7.76 9.35-26.87 30.94-4.8 6.32-3.64 5.22-2.94 4.62-2.46 4.24-2.08 4-1.8 3.8-1.55 3.7-1.35 3.62-1.16 3.58-1 3.58-.84 3.6-.7 3.62-.46 3.17" stroke="#3a414a" stroke-linejoin="round" fill="none"/><path d="M430.66 478.4l.48-.02v.53h-.96v-.53z" stroke="#3a414a" stroke-width=".05" fill="#3a414a"/><path d="M344.3 654.14l-4-14.46 9.27.4z" stroke="#3a414a" fill="#3a414a"/><path d="M652.34 432.16l-.2 4.06-.4 4.36-.58 4.18-.72 4.02-.86 3.9-1 3.8-1.17 3.7-1.3 3.67-1.47 3.6-1.64 3.6-1.84 3.6-2.03 3.62-2.27 3.67-2.53 3.73-2.85 3.85-3.23 4-3.7 4.2-4.3 4.5-5.14 4.93-6.3 5.6-8.37 6.76-13.4 9.94-45.84 32.5-8.24 6.67-6.2 5.5-5.02 4.8-4.2 4.4-3.6 4.1-3.14 3.88-2.77 3.73-2.45 3.62-2.2 3.54-1.95 3.5-1.76 3.45-1.57 3.47-1.4 3.47-1.27 3.5-1.1 3.56-.97 3.63-.83 3.72-.7 3.84-.05.46" stroke="#3a414a" stroke-linejoin="round" fill="none"/><path d="M652.84 431.67l-.03.52-.94-.06.03-.5z" stroke="#3a414a" stroke-width=".05" fill="#3a414a"/><path d="M490.77 649.48l-3.65-14.55 9.25.63z" stroke="#3a414a" fill="#3a414a"/><path d="M821.4 340.37l-.8 7.3-1.16 7.52-1.43 7.25-1.7 7.07-1.96 6.92-2.27 6.82-2.57 6.78-2.9 6.78-3.27 6.85-3.7 6.98-4.22 7.2-4.85 7.55-5.7 8.07-6.83 8.9-8.64 10.3-12.28 13.44-62.66 64.1-8.28 9.88-6.48 8.42-5.35 7.6-4.54 7.05-3.93 6.7-3.42 6.44-3 6.28-2.66 6.2-2.34 6.17-2.05 6.17-1.77 6.23-1.53 6.34-1.27 6.46-1.03 6.67-.7 6.42" stroke="#3a414a" stroke-linejoin="round" fill="none"/><path d="M821.94 339.9l-.06.53-.94-.1.05-.5z" stroke="#3a414a" stroke-width=".05" fill="#3a414a"/><path d="M645.4 648l-3.96-14.47 9.26.43z" stroke="#3a414a" fill="#3a414a"/><path d="M868.02 578.9l.05 1.76.2 2.12.34 2 .45 1.9.56 1.82.68 1.8.8 1.75.95 1.76 1.1 1.8 1.34 1.83 1.58 1.93 1.94 2.06 2.44 2.28 3.28 2.67 5 3.55 25.25 16.1 3.18 2.6 2.37 2.2 1.87 1.97 1.5 1.84 1.26 1.75 1.06 1.68.4.73" stroke="#3a414a" stroke-linejoin="round" fill="none"/><path d="M868 578.4l.48-.02v.5l-.94.04-.02-.55z" stroke="#3a414a" stroke-width=".05" fill="#3a414a"/><path d="M928.62 653.04l-7.5-13 9.08-1.92z" stroke="#3a414a" fill="#3a414a"/><defs><path d="M180 0v-1490h510c348 0 508 194 508 460 0 198-88 351-276 417L1256 0h-220L726-579c-117 2-238 0-356 1V0H180zm190-747h312c235 0 327-108 327-283 0-177-92-293-329-293H370v576" id="e"/><path d="M628 24c-324 0-524-230-524-574 0-343 198-582 503-582 237 0 487 146 487 559v75H286c9 234 145 362 343 362 132 0 231-58 273-172l174 48C1024-91 857 24 628 24zM287-650h624c-17-190-120-322-304-322-192 0-309 151-320 322" id="f"/><path d="M678-1118v154H420V0H240v-964H20v-154h220v-149c0-194 155-293 318-293 85 0 141 18 168 30l-50 154c-19-6-47-17-97-17-111 0-159 58-159 166v109h258" id="g"/><path d="M158 0v-1118h174v172h12c41-113 157-188 290-188 26 0 70 2 91 3v181c-11-2-60-10-108-10-161 0-279 109-279 260V0H158" id="h"/><path d="M338-670V0H158v-1118h173l1 207c72-158 192-221 342-221 226 0 378 139 378 422V0H872v-695c0-172-96-275-252-275-161 0-282 109-282 300" id="i"/><path d="M613 24c-304 0-509-231-509-576 0-350 205-580 509-580 216 0 392 114 453 309l-173 49c-33-115-133-197-280-197-223 0-326 196-326 419 0 220 103 415 326 415 150 0 252-85 285-206l172 49C1010-95 832 24 613 24" id="j"/><g id="a"><use transform="matrix(0.015190972222222224,0,0,0.015190972222222224,0,0)" xlink:href="#e"/><use transform="matrix(0.015190972222222224,0,0,0.015190972222222224,19.56597222222222,0)" xlink:href="#f"/><use transform="matrix(0.015190972222222224,0,0,0.015190972222222224,37.70399305555556,0)" xlink:href="#g"/><use transform="matrix(0.015190972222222224,0,0,0.015190972222222224,48.30729166666667,0)" xlink:href="#f"/><use transform="matrix(0.015190972222222224,0,0,0.015190972222222224,66.4453125,0)" xlink:href="#h"/><use transform="matrix(0.015190972222222224,0,0,0.015190972222222224,77.64105902777777,0)" xlink:href="#f"/><use transform="matrix(0.015190972222222224,0,0,0.015190972222222224,95.77907986111111,0)" xlink:href="#i"/><use transform="matrix(0.015190972222222224,0,0,0.015190972222222224,114.16015625,0)" xlink:href="#j"/><use transform="matrix(0.015190972222222224,0,0,0.015190972222222224,131.93359375,0)" xlink:href="#f"/></g><path d="M645 0H180v-1490h484c435 0 692 280 692 742 0 466-257 748-711 748zM370-168h263c363 0 539-218 539-580 0-358-176-574-521-574H370v1154" id="k"/><path d="M471 26C259 26 90-98 90-318c0-256 228-303 435-329 202-27 287-16 287-108 0-139-79-219-234-219-161 0-248 86-283 164l-173-57c86-203 278-265 451-265 150 0 419 46 419 395V0H815v-152h-12C765-73 660 26 471 26zm31-159c199 0 310-134 310-271v-155c-30 35-226 55-295 64-131 17-246 59-246 186 0 116 97 176 231 176" id="l"/><path d="M598-1118v154H368v674c0 100 37 144 132 144 23 0 62-6 92-12L629-6c-37 13-88 20-134 20-193 0-307-107-307-290v-688H20v-154h168v-266h180v266h230" id="m"/><g id="b"><use transform="matrix(0.015190972222222224,0,0,0.015190972222222224,0,0)" xlink:href="#k"/><use transform="matrix(0.015190972222222224,0,0,0.015190972222222224,22.452256944444446,0)" xlink:href="#l"/><use transform="matrix(0.015190972222222224,0,0,0.015190972222222224,39.921875,0)" xlink:href="#m"/><use transform="matrix(0.015190972222222224,0,0,0.015190972222222224,50.251736111111114,0)" xlink:href="#l"/></g><path d="M180 0v-1490h510c348 0 508 209 508 474 0 266-160 477-507 477H370V0H180zm190-706h312c236 0 327-133 327-310 0-176-91-307-329-307H370v617" id="n"/><path d="M338-1490V0H158v-1490h180" id="o"/><path d="M613 24c-304 0-509-231-509-576 0-350 205-580 509-580 305 0 511 230 511 580 0 345-206 576-511 576zm0-161c226 0 329-195 329-415 0-222-103-419-329-419-223 0-326 196-326 419 0 220 103 415 326 415" id="p"/><path d="M158 0v-1118h175l1 205c55-151 181-225 313-225 147 0 245 90 285 228 53-141 190-228 352-228 194 0 352 125 352 384V0h-181v-749c0-161-105-225-225-225-151 0-243 103-243 244V0H807v-767c0-124-93-207-219-207-131 0-250 92-250 270V0H158" id="q"/><g id="c"><use transform="matrix(0.015190972222222224,0,0,0.015190972222222224,0,0)" xlink:href="#n"/><use transform="matrix(0.015190972222222224,0,0,0.015190972222222224,19.869791666666668,0)" xlink:href="#o"/><use transform="matrix(0.015190972222222224,0,0,0.015190972222222224,27.404513888888893,0)" xlink:href="#l"/><use transform="matrix(0.015190972222222224,0,0,0.015190972222222224,44.87413194444445,0)" xlink:href="#m"/><use transform="matrix(0.015190972222222224,0,0,0.015190972222222224,54.29253472222223,0)" xlink:href="#g"/><use transform="matrix(0.015190972222222224,0,0,0.015190972222222224,64.89583333333334,0)" xlink:href="#p"/><use transform="matrix(0.015190972222222224,0,0,0.015190972222222224,83.55034722222223,0)" xlink:href="#h"/><use transform="matrix(0.015190972222222224,0,0,0.015190972222222224,95.74869791666667,0)" xlink:href="#q"/></g><path d="M538 24C308 24 148-78 108-271l171-41c32 123 123 178 257 178 156 0 256-77 256-169 0-77-54-128-164-154l-186-44c-203-48-300-148-300-305 0-192 176-326 414-326 230 0 351 112 402 269l-163 42c-31-80-94-158-238-158-133 0-233 69-233 162 0 83 57 129 188 160l169 40c203 48 298 149 298 302 0 196-179 339-441 339" id="r"/><g id="d"><use transform="matrix(0.015190972222222224,0,0,0.015190972222222224,0,0)" xlink:href="#k"/><use transform="matrix(0.015190972222222224,0,0,0.015190972222222224,22.452256944444446,0)" xlink:href="#l"/><use transform="matrix(0.015190972222222224,0,0,0.015190972222222224,39.921875,0)" xlink:href="#m"/><use transform="matrix(0.015190972222222224,0,0,0.015190972222222224,50.251736111111114,0)" xlink:href="#l"/><use transform="matrix(0.015190972222222224,0,0,0.015190972222222224,67.72135416666667,0)" xlink:href="#r"/><use transform="matrix(0.015190972222222224,0,0,0.015190972222222224,84.1427951388889,0)" xlink:href="#f"/><use transform="matrix(0.015190972222222224,0,0,0.015190972222222224,102.28081597222223,0)" xlink:href="#m"/></g></defs></g></svg>